<svg xmlns:xlink="http://www.w3.org/1999/xlink" xmlns="http://www.w3.org/2000/svg" width="361" height="284" viewBox="0 0 361 284" fill="none">
<path d="M164.365 256.769C164.996 257.159 167.023 263.204 168.314 268.544C169.197 269.694 172.253 269.185 173.67 268.787C178.206 264.689 189.74 259.973 195.227 259.973C196.593 259.973 196.841 259.605 196.841 257.573C196.841 255.524 196.636 255.225 195.44 255.538C194.572 255.765 193.881 255.493 193.624 254.824C193.262 253.882 194.667 244.847 195.856 240.471C196.243 239.045 196.079 238.969 193.384 239.331C190.539 239.712 190.497 239.686 190.497 237.518C190.497 234.583 192.603 229.194 195.255 225.339C197.006 222.794 197.269 221.947 196.654 220.847C196.237 220.102 195.703 218.548 195.466 217.393C195.143 215.812 194.515 215.159 192.921 214.746C191.758 214.444 190.17 213.606 189.394 212.883C188.618 212.159 187.063 211.337 185.94 211.055C184.816 210.773 182.723 209.37 181.29 207.936C176.576 203.223 176.045 193.824 180.271 189.908C181.183 189.062 183.779 187.794 186.038 187.09C196.739 183.755 210.349 174.738 207.416 172.925C205.865 171.967 206.679 167.721 208.897 165.195C210.569 163.29 210.81 162.703 209.919 162.703C208.438 162.703 208.729 160.367 205.652 162.707C205.85 165.859 204.594 169.192 204.594 173.962C204.594 174.897 190.779 183.071 187.643 182.076C185.642 181.44 185.953 180.614 188.559 179.64C189.819 179.169 191.484 178.529 192.259 178.219L193.669 177.655L192.259 177.106C191.484 176.805 189.105 175.39 186.973 173.962C182.589 171.026 178.506 168.821 178.136 169.192C177.999 169.328 178.818 170.065 179.955 170.83C182.294 172.401 183.103 173.904 182.131 174.876C181.721 175.286 179.507 174.569 176.292 172.987C169.53 169.659 164.362 168.588 160.365 169.687C158.717 170.14 157.369 170.773 157.369 171.093C157.369 171.412 159.431 171.839 161.951 172.041C167.074 172.452 170.636 174.196 169.398 175.687C168.786 176.424 167.955 176.407 164.946 175.593C160.36 174.352 153.545 174.834 149.336 176.696C144.525 178.824 144.642 179.636 149.728 179.439C153.312 179.3 154.192 179.482 154.381 180.402C154.566 181.299 153.266 181.851 148.174 183.038C144.631 183.864 139.845 185.546 137.539 186.776C132.223 189.609 125.992 196.285 123.498 201.819C121.207 206.903 120 208.875 116.089 216.625C112.123 222.619 111.728 227.56 110.227 231.427C108.059 237.011 108.37 237.369 111.898 233.356C113.419 231.625 115.032 231.803 115.032 233.702C115.032 234.269 113.723 236.154 112.123 237.89C110.523 239.626 109.333 241.046 109.48 241.045C109.626 241.045 111.461 240.393 113.557 239.596C117.081 238.258 117.455 238.235 118.491 239.298C119.521 240.353 119.418 240.613 117.24 242.454L114.866 244.46L117.344 243.901C118.708 243.593 120.251 243.609 120.775 243.936C122.317 244.898 120.751 246.511 116.089 248.763L111.86 250.806L116.913 250.86C122.9 250.924 124.195 251.321 124.195 253.096C124.195 254.043 122.633 255.211 118.732 257.182C112.862 260.148 107.279 263.928 107.279 264.936C107.279 265.277 110.066 264.356 113.471 262.887C119.313 260.369 121.234 259.804 123.314 259.996C125.063 260.157 124.139 261.894 121.406 263.582C119.871 264.531 118.741 265.431 118.893 265.583C119.045 265.735 120.788 265.322 122.765 264.665C125.629 263.714 126.573 263.647 127.401 264.334C128.71 265.421 127.815 266.636 124.245 268.619L121.728 270.017L124.195 269.574C128.206 268.855 147.459 266.381 152.964 266.348C155.775 266.331 158.074 266.197 158.074 266.051C158.074 265.904 157.576 264.594 156.969 263.139C156.145 261.169 155.659 260.696 155.066 261.29C154.626 261.729 153.561 262.088 152.698 262.088C150.765 262.088 148.053 256.758 146.128 249.178L144.845 244.123L143.741 246.761C141.604 251.879 139.148 249.522 136.828 240.127C135.459 234.582 135.249 234.204 133.537 234.224C132.008 234.243 131.566 233.782 130.847 231.427C130.374 229.876 129.964 226.784 129.934 224.554C129.887 221.014 129.705 220.501 128.495 220.501C126.334 220.501 125.434 217.973 125.832 213.022C126.518 204.474 132.827 194.833 141.288 189.404C144.417 187.396 144.887 187.277 145.854 188.243C146.82 189.209 146.74 189.456 145.075 190.637C134.271 198.305 129.142 205.758 129.193 213.718L129.212 216.625L131.867 211.624C134.993 205.736 138.77 200.765 140.118 200.765C142.105 200.765 141.823 202.249 139.069 206.284C135.102 212.095 134.013 215.553 133.593 223.673C133.217 230.927 133.718 232.079 134.918 226.724C136.092 221.487 139.08 215.567 140.549 215.567C142.18 215.567 142.167 216.332 140.453 221.206C138.762 226.011 138.655 232.967 140.168 239.619C140.787 242.34 141.431 244.428 141.599 244.26C141.767 244.091 142.45 241.77 143.117 239.1C144.91 231.92 146.066 232.53 147.941 241.647C148.778 245.718 150.114 250.634 150.911 252.572C152.483 256.4 152.454 256.442 152.838 249.753C152.905 248.59 153 247.083 153.05 246.405C153.099 245.727 153.604 245.171 154.173 245.171C155.453 245.171 156.219 246.634 157.311 251.163C159.002 258.18 160.301 262.088 160.943 262.088C161.304 262.088 161.598 261.175 161.598 260.059C161.598 257.906 163.174 256.032 164.365 256.769Z" fill="black"/>
<path fill-rule="evenodd" clip-rule="evenodd" d="M232.18 123.479C233.459 124.141 234.851 125.765 235.654 127.532C237.327 131.218 237.361 132.689 235.795 133.566C234.775 134.137 234.325 133.763 233.152 131.363C229.889 124.695 226.634 125.667 220.481 135.148C218.199 138.666 213.216 144.858 209.408 148.907C203.082 155.635 201.307 158.323 203.19 158.323C203.578 158.323 203.895 159.224 203.895 160.324C203.895 161.785 203.41 162.547 202.1 163.144C198.592 169.758 192.247 165.244 192.247 161.576C192.247 158.591 197.809 151.82 206.345 142.619C210.276 138.383 214.62 132.5 217.285 130.173C219.056 127.808 223.171 124.196 225.761 123.162C228.28 122.157 229.764 122.23 232.18 123.479ZM275.308 123.185C276.155 123.631 278.711 125.543 280.988 127.436C285.921 131.536 289.649 133.729 294.621 135.456C302.437 138.172 303.728 141.269 301.545 152.068C298.509 167.085 295.571 169.286 288.218 162.052C283.327 157.241 280.091 152.199 273.627 139.324C267.176 126.474 266.114 125.512 262.352 129.115C261.215 130.206 260.284 131.495 260.284 131.981C260.284 133.684 261.813 133.787 263.505 132.197C264.444 131.315 265.404 130.785 265.638 131.019C266.125 131.507 264.652 136.49 263.723 137.495C262.261 139.074 263.074 140.159 265.394 139.724C267.664 139.298 267.717 139.352 271.317 145.813C273.316 149.398 275.762 153.964 276.754 155.958C277.746 157.952 280.328 161.599 282.491 164.064C288.136 170.495 293.553 180.289 288.475 174.884C286.826 173.129 284.669 172.58 283.955 173.736C283.747 174.072 284.684 175.768 286.038 177.504C288.39 180.524 292.002 188.472 292.002 190.629C292.002 191.193 290.877 190.181 289.503 188.381C285.498 183.136 284.634 183.952 285.786 191.891C286.473 196.624 286.411 198.248 285.372 202.905C284.701 205.909 283.922 208.368 283.642 208.368C283.361 208.368 282.827 207.337 282.456 206.077C281.407 202.513 279.747 203.146 279.225 207.311C278.983 209.249 278.314 211.945 277.739 213.302L276.693 215.769L276.159 210.306C275.769 206.32 275.356 204.844 274.628 204.844C274.08 204.844 273.443 205.399 273.213 206.077C271.303 211.719 265.278 221.628 263.697 221.73C263.441 221.747 263.74 220.172 264.361 218.231C265.224 215.533 265.295 214.507 264.664 213.876C264.032 213.244 262.796 214.045 259.417 217.274C256.986 219.598 253.094 222.783 250.768 224.353C245.904 227.635 237.744 231.88 237.25 231.386C237.066 231.201 238.525 228.836 240.493 226.13C246.017 218.537 244.907 216.363 238.439 222.107C236.479 223.849 233.677 225.883 232.216 226.63C229.563 227.983 224.336 229.291 224.336 228.601C224.336 228.401 225.709 227.433 227.388 226.45C231.225 224.201 232.572 222.665 231.579 221.673C230.476 220.57 218.52 228.441 218.844 230.058C219.215 231.912 227.813 231.67 232.266 229.68C234.107 228.857 235.614 228.316 235.614 228.479C235.614 228.642 234.992 229.796 234.233 231.045C232.364 234.118 233.304 235.281 236.879 234.318C242.044 232.929 251.301 227.664 259.128 221.665L261.144 220.119L260.009 222.315C258.345 225.532 258.546 226.694 260.766 226.694C262.909 226.694 268.082 221.779 271.294 216.691L273.201 213.67L273.988 216.477C275.038 220.216 276.633 220.405 278.909 217.057C279.907 215.587 280.724 213.99 280.724 213.508C280.724 212.918 281.389 212.765 282.761 213.04C284.698 213.427 284.872 213.25 286.291 209.455C288.291 204.112 289.145 200.216 289.166 196.346L289.183 193.134L296.113 199.87C299.924 203.575 302.976 206.699 302.894 206.814C302.812 206.929 301.313 206.327 299.563 205.477C296.476 203.977 294.117 204.01 294.117 205.554C294.117 205.969 296.108 208.438 298.542 211.039C303.963 216.833 305.93 219.477 308.876 224.932L311.159 229.161L308.918 226.694C307.685 225.337 304.94 222.245 302.819 219.822C299.028 215.491 296.936 214.324 296.936 216.539C296.936 217.157 298.601 219.514 300.637 221.778C302.672 224.042 305.27 227.581 306.409 229.642L308.481 233.39L305.952 231.47C303.983 229.976 303.259 229.746 302.689 230.433C302.15 231.082 302.968 232.509 305.79 235.844C307.899 238.335 309.623 240.596 309.623 240.867C309.623 241.139 308.322 241.187 306.733 240.974C304.21 240.636 303.873 240.75 304.09 241.867C304.247 242.681 306.007 243.842 308.919 245.051C318.768 249.144 350.886 266.259 353.501 268.808C356.761 271.987 357.082 275.16 354.413 277.828C351.884 280.357 351.21 279.99 351.21 276.08C351.21 271.54 350.171 268.808 348.565 269.126C347.497 269.337 347.368 270.061 347.591 274.569L347.85 279.767L345.565 279.31C344.309 279.059 342.216 278.853 340.915 278.853H338.549L338.919 275.858C339.428 271.716 338.457 268.689 336.527 268.407C335.019 268.186 334.991 268.31 335.453 273.276L335.927 278.372L331.004 277.914C328.298 277.663 322.459 276.637 318.03 275.635C313.6 274.633 307.206 273.632 303.822 273.41C298.411 273.056 297.539 272.811 296.603 271.383C292.251 264.741 279.212 258.957 258.698 254.571C257.472 254.309 256.759 253.699 256.759 252.913C256.759 251.188 249.377 244.003 248.294 244.672C247.738 245.016 247.593 246.131 247.876 247.898L248.308 250.599L245.358 249.558C242.121 248.416 240.704 249.015 241.613 251.141C241.914 251.845 242.194 253.051 242.235 253.821C242.294 254.935 243.032 255.344 245.834 255.821C257.004 257.724 270.808 260.748 274.926 262.196C287.586 266.648 294.391 271.399 293.981 275.499C293.551 279.783 288.86 281.499 279.88 280.658L274.733 280.176V275.663C274.733 272.405 274.409 270.826 273.567 269.984C271.471 267.888 270.743 269.404 271.271 274.766L271.759 279.713L269.369 279.234C268.055 278.97 263.491 277.993 259.226 277.064C248.429 274.709 233.472 272.997 226.979 273.371L221.517 273.686V271.382C221.517 264.353 216.791 260.283 206.842 258.743C204.538 258.386 203.897 258.016 204.202 257.22C205.445 253.982 205.445 252.774 204.203 252.774C203.513 252.774 202.345 253.32 201.607 253.988C200.311 255.161 200.281 255.131 200.741 253.107C202.104 247.109 202.702 245.65 205.343 241.879C207.496 238.806 208.011 237.584 207.401 236.995C206.796 236.411 205.611 237.277 202.775 240.377C200.677 242.668 198.961 244.324 198.961 244.055C198.961 242.38 202.242 234.321 203.96 231.775C208.33 225.301 205.413 224.878 199.157 231.079C196.723 233.491 194.732 235.113 194.732 234.684C194.732 233.442 196.322 230.084 198.607 226.5C200.339 223.784 200.975 223.28 202.132 223.706C202.908 223.993 205.763 224.216 208.477 224.202C212.269 224.184 214.327 223.754 217.372 222.345C222.066 220.173 227.155 215.793 227.155 213.925C227.155 211.996 224.894 212.262 222.873 214.429C218.852 218.739 209.303 221.843 204.494 220.402C202.032 219.664 198.962 216.591 199.825 215.727C200.018 215.535 203.972 215.306 208.613 215.22C216.64 215.072 217.217 214.96 220.492 212.935C222.386 211.763 224.934 209.496 226.154 207.895C228.287 205.098 228.417 205.037 229.507 206.31C230.869 207.901 232.794 207.369 232.794 205.403C232.794 203.588 228.419 199.205 226.607 199.205C224.509 199.205 223.224 201.036 224.36 202.405C225.119 203.32 224.882 203.887 222.86 205.992C219.522 209.467 215.859 211.177 210.738 211.649C206.019 212.085 194.748 210.955 192.772 209.85C191.703 209.252 191.78 209.089 193.42 208.464C197.643 206.859 202.486 201.004 202.486 197.505C202.486 195.093 199.247 192.676 194.334 191.424L189.446 190.177L194.318 187.973C196.997 186.761 201.345 184.336 203.981 182.584C208.492 179.584 215.409 172.534 217.19 169.119C218.182 167.216 218.234 164.195 217.285 163.608C216.896 163.368 216.757 162.453 216.978 161.576C217.617 159.027 215.812 158.108 210.863 158.466C207.044 158.742 206.701 158.664 207.866 157.789C208.845 157.054 210.383 156.914 213.875 157.245C217.084 157.55 218.728 157.435 219.069 156.882C219.985 155.399 217.59 154.012 213.877 153.876C211.883 153.802 210.247 153.627 210.245 153.488C210.242 153.348 211.864 151.456 213.851 149.283C215.837 147.109 218.771 143.417 220.371 141.078C222.295 138.264 223.756 136.825 224.688 136.825C225.804 136.825 226.143 136.283 226.314 134.235C226.432 132.811 227.021 131.238 227.621 130.74C228.546 129.973 229.007 130.195 230.637 132.192C231.917 133.76 232.455 135.108 232.244 136.216C231.968 137.657 232.198 137.88 233.945 137.866C235.057 137.856 237.785 137.101 240.008 136.187L244.049 134.524L242.607 136.551C239.746 140.569 242.816 141.125 249.167 137.739C252.254 136.094 254.457 134.161 257.284 130.617C260.141 127.038 262.12 125.309 264.778 124.071C268.688 122.25 272.863 121.899 275.308 123.185ZM235.996 159.684C235.212 160.953 236.986 162.552 239.178 162.552C242.079 162.552 244.661 163.706 248.876 166.888C252.462 169.595 254.645 170.015 254.645 167.999C254.645 166.621 250.533 162.917 246.96 161.077C243.43 159.259 236.782 158.414 235.996 159.684ZM233.541 165.674C232.811 166.554 232.772 167.041 233.384 167.653C233.995 168.264 233.679 168.68 232.099 169.345C229.181 170.572 227.077 174.217 227.316 177.635C227.575 181.342 229.106 182.259 232.409 180.684C236.905 178.54 238.995 173.132 236.631 169.758C235.128 167.612 236.465 167.672 240.957 169.95C245.195 172.1 246.891 172.205 246.891 170.316C246.891 166.849 235.774 162.984 233.541 165.674ZM306.408 213.66C309.279 217.423 308.514 217.421 304.689 213.654C302.751 211.745 301.165 209.926 301.165 209.612C301.165 208.605 304.541 211.212 306.408 213.66ZM212.824 263.578C217.245 265.864 219.179 270.384 217.266 273.958C216.541 275.314 214.071 276.844 211.159 277.742C209.729 278.182 209.641 278.035 210.003 275.806C210.631 271.937 209.084 271.906 205.727 275.721C202.886 278.95 202.569 279.11 198.414 279.41C196.024 279.583 192.573 279.5 190.745 279.226L187.42 278.727L189.99 277.258C195.28 274.236 193.965 271.671 188.076 273.523C182.719 275.208 178.212 275.201 176.339 273.506L174.857 272.165L177.451 269.922C180.376 267.393 187.37 264.38 193.675 262.932C199.192 261.665 209.818 262.023 212.824 263.578ZM283.146 269.907C282.786 270.845 284.547 279.386 285.243 280.083C285.453 280.293 286.144 280.033 286.778 279.506C287.68 278.757 287.843 277.788 287.522 275.08C286.993 270.607 284.161 267.261 283.146 269.907Z" fill="black"/>
<mask id="path-3-inside-1_139_3" fill="black">
<path fill-rule="evenodd" clip-rule="evenodd" d="M128.894 63.2342V69.4898L126.691 69.9303C125.479 70.1728 123 70.3709 121.18 70.3709C115.713 70.3709 111.043 72.1408 108.197 75.2915C104.945 78.8904 104.572 80.389 104.597 89.7544C104.621 98.4875 105.425 101.592 108.471 104.708C111.613 107.921 115.375 108.585 127.415 108.051C139.265 107.525 142.128 106.954 144.995 104.54C148.451 101.633 149.54 97.8743 149.518 88.9149C149.503 82.2103 149.263 80.5377 147.923 77.7669C145.732 73.2418 142.268 71.0969 136.181 70.4949C133.129 70.1932 131.328 69.6949 131.273 69.1374C131.224 68.6531 131.145 65.7188 131.096 62.6175C131.026 58.1142 130.795 56.9786 129.951 56.9786C129.09 56.9786 128.894 58.1438 128.894 63.2342ZM141.398 74.8044C145.162 76.8386 146.666 80.7534 146.719 88.6485C146.815 103.264 143.954 105.23 123.234 104.782C113.34 104.568 112.697 104.467 110.995 102.867C108.384 100.41 107.521 96.9975 107.503 89.0495C107.471 75.6037 110.987 73.0726 129.246 73.3954C137.067 73.5335 139.588 73.8261 141.398 74.8044ZM115.964 78.9229C115.249 79.338 114.221 80.7407 113.678 82.039C112.5 84.8584 113.183 87.2409 115.717 89.1524C117.187 90.2612 117.33 90.7172 116.74 92.4103C116.261 93.7826 116.313 95.0062 116.91 96.4491C118.41 100.068 122.434 100.083 124.299 96.4766C125.125 94.8787 125.899 94.4332 128.239 94.2105C129.912 94.0512 131.646 94.3091 132.313 94.8166C136.571 98.0562 142.353 92.6549 139.218 88.3672C138.511 87.4016 138.448 86.5755 138.973 85.1848C140.719 80.5595 136.805 76.9126 132.491 79.1442C131.287 79.7659 130.303 80.5842 130.303 80.962C130.303 81.3398 128.89 81.6485 127.163 81.6485C124.754 81.6485 123.614 81.2383 122.262 79.8864C120.398 78.0228 118.114 77.6732 115.964 78.9229ZM155.969 99.0211C156.441 116.679 156.888 120.324 158.377 118.618C158.698 118.25 158.778 109.547 158.553 99.2784C158.168 81.6605 158.07 80.5934 156.804 80.3509C155.503 80.1014 155.478 80.6547 155.969 99.0211ZM121.448 82.7368C122.565 84.4412 122.838 84.5053 126.992 84.0394C130.042 83.6976 131.638 83.1562 132.282 82.2463C134.336 79.3408 137.942 81.6965 136.45 84.9698C135.872 86.2386 135.966 87.1795 136.854 89.0418C137.893 91.2212 137.9 91.5722 136.926 92.5477C135.571 93.9017 135.228 93.8982 133.244 92.5089C132.002 91.6391 130.727 91.4925 127.583 91.8577C123.927 92.282 123.446 92.5336 122.745 94.3895C122.246 95.7118 121.467 96.4505 120.572 96.4505C118.9 96.4505 118.312 95.205 119.074 93.2786C120.213 90.4 119.786 87.5891 117.968 86.0095C116.28 84.542 115.681 82.4091 116.676 81.4138C117.758 80.3319 120.342 81.0487 121.448 82.7368ZM125.376 87.212C122.458 87.5341 121.448 87.9436 121.271 88.8733C121.071 89.9306 121.572 90.0948 124.789 90.0236C130.074 89.9059 132.77 89.2173 132.77 87.9852C132.77 86.7764 130.995 86.5903 125.376 87.212ZM94.8161 102.167C94.1923 110.958 94.2367 118.144 94.9183 118.565C96.5613 119.58 97.0223 117.315 97.2676 107.035C97.4953 97.4669 97.3888 96.0931 96.402 95.9021C95.4625 95.7195 95.2003 96.755 94.8161 102.167ZM81.3675 109.759C81.1567 110.101 80.7691 116.795 80.5076 124.635C80.0466 138.422 80.0755 138.881 81.3788 138.631C82.6334 138.391 82.7568 137.405 83.174 124.284C83.4207 116.535 83.4813 109.958 83.3087 109.667C82.8829 108.95 81.8376 108.999 81.3675 109.759ZM185.067 113.896C184.847 114.285 186.335 139.567 186.643 140.68C186.67 140.777 187.215 140.856 187.854 140.856C188.902 140.856 188.968 139.87 188.531 130.812C187.867 117.04 187.394 113.367 186.284 113.367C185.779 113.367 185.231 113.605 185.067 113.896ZM61.5977 132.369C61.2199 132.981 61.9544 184.612 63.0695 235.835C63.4149 251.693 63.694 255.748 64.4383 255.748C64.9528 255.748 65.5491 255.464 65.7634 255.117C66.2131 254.389 64.1535 135.669 63.6496 133.279C63.3028 131.633 62.3216 131.198 61.5977 132.369Z"/>
</mask>
<path d="M128.894 69.4898L129.447 72.2548L131.713 71.8014V69.4898H128.894ZM126.691 69.9303L126.138 67.1653L126.138 67.1654L126.691 69.9303ZM108.197 75.2915L110.289 77.182L110.289 77.1816L108.197 75.2915ZM104.597 89.7544L107.417 89.7469L107.417 89.7467L104.597 89.7544ZM108.471 104.708L110.488 102.737L110.487 102.736L108.471 104.708ZM127.415 108.051L127.29 105.234L127.29 105.234L127.415 108.051ZM144.995 104.54L143.18 102.382L143.18 102.383L144.995 104.54ZM149.518 88.9149L146.699 88.9214L146.699 88.9215L149.518 88.9149ZM147.923 77.7669L150.461 76.5388L150.461 76.5382L147.923 77.7669ZM136.181 70.4949L136.459 67.6889L136.459 67.6888L136.181 70.4949ZM131.273 69.1374L134.078 68.8572L134.078 68.8556L131.273 69.1374ZM131.096 62.6175L128.277 62.6616L128.277 62.6617L131.096 62.6175ZM141.398 74.8044L140.057 77.285L140.057 77.2851L141.398 74.8044ZM146.719 88.6485L149.538 88.6298L149.538 88.6296L146.719 88.6485ZM123.234 104.782L123.295 101.963L123.295 101.963L123.234 104.782ZM110.995 102.867L112.927 100.813L112.927 100.813L110.995 102.867ZM107.503 89.0495L110.323 89.043L110.323 89.0429L107.503 89.0495ZM129.246 73.3954L129.196 76.2147L129.196 76.2147L129.246 73.3954ZM115.964 78.9229L117.38 81.3611L117.381 81.3606L115.964 78.9229ZM113.678 82.039L111.076 80.9515L111.076 80.9521L113.678 82.039ZM115.717 89.1524L117.415 86.9014L117.415 86.9014L115.717 89.1524ZM116.74 92.4103L119.402 93.3388L119.403 93.3381L116.74 92.4103ZM116.91 96.4491L114.305 97.5283L114.305 97.5283L116.91 96.4491ZM124.299 96.4766L126.803 97.7717L126.804 97.7715L124.299 96.4766ZM128.239 94.2105L128.506 97.0175L128.506 97.0175L128.239 94.2105ZM132.313 94.8166L130.605 97.0604L130.606 97.0608L132.313 94.8166ZM139.218 88.3672L141.494 86.7029L141.494 86.7026L139.218 88.3672ZM138.973 85.1848L141.611 86.1809L141.611 86.1806L138.973 85.1848ZM132.491 79.1442L133.785 81.6493L133.786 81.6487L132.491 79.1442ZM122.262 79.8864L124.256 77.8925L122.262 79.8864ZM155.969 99.0211L153.15 99.0964L153.15 99.0965L155.969 99.0211ZM158.377 118.618L160.502 120.472L160.502 120.471L158.377 118.618ZM158.553 99.2784L155.734 99.3399L155.734 99.3401L158.553 99.2784ZM156.804 80.3509L156.273 83.1202L156.273 83.1203L156.804 80.3509ZM121.448 82.7368L123.807 81.1917L123.807 81.191L121.448 82.7368ZM126.992 84.0394L126.678 81.2372L126.678 81.2372L126.992 84.0394ZM132.282 82.2463L134.584 83.8744L134.584 83.874L132.282 82.2463ZM136.45 84.9698L133.885 83.8007L133.884 83.8009L136.45 84.9698ZM136.854 89.0418L134.309 90.2556L134.309 90.2558L136.854 89.0418ZM136.926 92.5477L138.919 94.5421L138.92 94.5409L136.926 92.5477ZM133.244 92.5089L134.862 90.1994L134.862 90.1993L133.244 92.5089ZM127.583 91.8577L127.908 94.6586L127.908 94.6586L127.583 91.8577ZM122.745 94.3895L120.107 93.3936L120.107 93.3939L122.745 94.3895ZM119.074 93.2786L116.452 92.2412L116.452 92.2415L119.074 93.2786ZM117.968 86.0095L116.119 88.1376L116.119 88.1376L117.968 86.0095ZM116.676 81.4138L118.67 83.4077L118.671 83.407L116.676 81.4138ZM125.376 87.212L125.685 90.0147L125.686 90.0146L125.376 87.212ZM121.271 88.8733L118.501 88.3462L118.5 88.3487L121.271 88.8733ZM124.789 90.0236L124.852 92.8427L124.852 92.8427L124.789 90.0236ZM94.8161 102.167L92.0034 101.967L92.0034 101.967L94.8161 102.167ZM94.9183 118.565L96.4003 116.166L96.3996 116.166L94.9183 118.565ZM97.2676 107.035L100.087 107.102L100.087 107.102L97.2676 107.035ZM96.402 95.9021L95.8642 98.6701L95.8662 98.6705L96.402 95.9021ZM81.3675 109.759L78.9696 108.275L78.9672 108.279L81.3675 109.759ZM80.5076 124.635L83.3257 124.729L83.3257 124.729L80.5076 124.635ZM81.3788 138.631L81.909 141.401L81.9093 141.4L81.3788 138.631ZM83.174 124.284L80.3557 124.194L80.3557 124.194L83.174 124.284ZM83.3087 109.667L85.7338 108.228L85.7331 108.227L83.3087 109.667ZM185.067 113.896L187.522 115.283L187.523 115.281L185.067 113.896ZM186.643 140.68L183.926 141.432L183.926 141.434L186.643 140.68ZM188.531 130.812L185.715 130.948L185.715 130.948L188.531 130.812ZM61.5977 132.369L59.199 130.887L59.1985 130.888L61.5977 132.369ZM63.0695 235.835L60.2504 235.897L60.2504 235.897L63.0695 235.835ZM65.7634 255.117L68.1622 256.599L68.1625 256.598L65.7634 255.117ZM63.6496 133.279L60.8904 133.86L60.8905 133.861L63.6496 133.279ZM126.074 63.2342V69.4898H131.713V63.2342H126.074ZM128.341 66.7248L126.138 67.1653L127.244 72.6953L129.447 72.2548L128.341 66.7248ZM126.138 67.1654C125.172 67.3587 122.893 67.5511 121.18 67.5511V73.1906C123.107 73.1906 125.787 72.9869 127.244 72.6953L126.138 67.1654ZM121.18 67.5511C115.159 67.5511 109.63 69.4992 106.105 73.4013L110.289 77.1816C112.457 74.7823 116.267 73.1906 121.18 73.1906V67.5511ZM106.105 73.4009C104.362 75.3303 103.094 77.0193 102.432 79.6795C101.835 82.0784 101.765 85.1657 101.778 89.762L107.417 89.7467C107.404 84.9777 107.508 82.633 107.904 81.0415C108.235 79.7114 108.78 78.8516 110.289 77.182L106.105 73.4009ZM101.778 89.7619C101.789 94.1496 101.99 97.4172 102.671 100.045C103.392 102.828 104.626 104.808 106.455 106.679L110.487 102.736C109.27 101.492 108.579 100.362 108.13 98.6306C107.641 96.7437 107.429 94.0923 107.417 89.7469L101.778 89.7619ZM106.455 106.679C108.466 108.736 110.738 109.966 114.116 110.562C117.296 111.123 121.532 111.135 127.54 110.868L127.29 105.234C121.259 105.502 117.593 105.449 115.096 105.008C112.798 104.602 111.618 103.893 110.488 102.737L106.455 106.679ZM127.54 110.868C139.143 110.353 143.076 109.841 146.811 106.697L143.18 102.383C141.18 104.066 139.387 104.697 127.29 105.234L127.54 110.868ZM146.811 106.698C148.962 104.888 150.411 102.745 151.269 99.781C152.087 96.9563 152.349 93.4444 152.338 88.9082L146.699 88.9215C146.709 93.3447 146.437 96.1917 145.852 98.2128C145.307 100.095 144.485 101.285 143.18 102.382L146.811 106.698ZM152.338 88.9084C152.33 85.5748 152.27 83.2918 152.009 81.4661C151.729 79.5146 151.228 78.1233 150.461 76.5388L145.384 78.995C145.958 80.1813 146.247 81.0117 146.426 82.2653C146.624 83.6448 146.691 85.5504 146.699 88.9214L152.338 88.9084ZM150.461 76.5382C149.174 73.8804 147.428 71.7678 144.997 70.2624C142.608 68.7825 139.758 68.0152 136.459 67.6889L135.904 73.301C138.691 73.5766 140.616 74.1827 142.028 75.057C143.399 75.9058 144.481 77.1283 145.385 78.9956L150.461 76.5382ZM136.459 67.6888C134.999 67.5445 133.968 67.364 133.355 67.1944C133.031 67.1047 132.969 67.057 133.046 67.1018C133.087 67.1256 133.27 67.2335 133.475 67.462C133.688 67.7002 134.01 68.169 134.078 68.8572L128.467 69.4176C128.627 71.0173 129.875 71.7822 130.221 71.9828C130.748 72.2873 131.337 72.4875 131.852 72.6298C132.916 72.9242 134.312 73.1436 135.904 73.301L136.459 67.6888ZM134.078 68.8556C134.08 68.8683 134.076 68.8284 134.069 68.6987C134.063 68.5838 134.056 68.4314 134.049 68.2426C134.035 67.8657 134.019 67.3682 134.003 66.7828C133.972 65.6133 133.94 64.1151 133.916 62.5733L128.277 62.6617C128.324 65.6836 128.403 68.7826 128.467 69.4192L134.078 68.8556ZM133.916 62.5733C133.881 60.374 133.81 58.696 133.577 57.5481C133.464 56.9929 133.245 56.1738 132.678 55.4649C131.951 54.5565 130.935 54.1589 129.951 54.1589V59.7984C129.736 59.7984 129.418 59.7609 129.068 59.6012C128.711 59.4378 128.448 59.205 128.274 58.9879C127.99 58.6327 127.991 58.379 128.051 58.6705C128.161 59.2162 128.241 60.3576 128.277 62.6616L133.916 62.5733ZM129.951 54.1589C128.939 54.1589 127.881 54.5813 127.155 55.5647C126.608 56.3051 126.416 57.1559 126.319 57.7277C126.116 58.9331 126.074 60.7472 126.074 63.2342H131.713C131.713 60.6307 131.77 59.3171 131.88 58.6673C131.94 58.3116 131.959 58.5529 131.691 58.9158C131.521 59.1453 131.252 59.4027 130.871 59.5843C130.5 59.761 130.165 59.7984 129.951 59.7984V54.1589ZM140.057 77.2851C141.318 77.9666 142.194 78.9169 142.818 80.5402C143.49 82.2885 143.873 84.8405 143.899 88.6673L149.538 88.6296C149.511 84.5613 149.116 81.2084 148.082 78.517C147 75.7006 145.241 73.6765 142.738 72.3238L140.057 77.2851ZM143.899 88.6671C143.923 92.2925 143.754 94.8398 143.274 96.6912C142.823 98.4312 142.146 99.3805 141.186 100.04C140.107 100.781 138.359 101.372 135.35 101.703C132.368 102.031 128.463 102.075 123.295 101.963L123.173 107.601C128.365 107.713 132.588 107.68 135.966 107.308C139.319 106.94 142.165 106.21 144.379 104.688C146.712 103.086 148.027 100.831 148.733 98.1056C149.411 95.4917 149.563 92.3124 149.538 88.6298L143.899 88.6671ZM123.295 101.963C118.248 101.854 115.854 101.774 114.478 101.559C113.858 101.462 113.634 101.361 113.542 101.313C113.443 101.261 113.313 101.175 112.927 100.813L109.063 104.921C109.529 105.359 110.117 105.885 110.926 106.309C111.743 106.737 112.617 106.975 113.606 107.13C115.452 107.419 118.326 107.496 123.174 107.601L123.295 101.963ZM112.927 100.813C111.27 99.2542 110.341 96.9977 110.323 89.043L104.683 89.056C104.701 96.9972 105.497 101.567 109.063 104.921L112.927 100.813ZM110.323 89.0429C110.307 82.2701 111.276 79.7062 113.163 78.3476C114.212 77.5926 115.845 76.9797 118.529 76.6073C121.202 76.2364 124.668 76.1346 129.196 76.2147L129.296 70.5761C124.695 70.4947 120.874 70.5883 117.754 71.0214C114.644 71.4529 111.977 72.2527 109.868 73.7708C105.44 76.9586 104.667 82.3832 104.683 89.0562L110.323 89.0429ZM129.196 76.2147C133.111 76.2839 135.57 76.3909 137.251 76.5858C138.894 76.7763 139.586 77.0304 140.057 77.285L142.739 72.3238C141.4 71.6001 139.926 71.2187 137.901 70.9839C135.913 70.7534 133.202 70.6451 129.296 70.5761L129.196 76.2147ZM114.548 76.4846C113.673 76.9928 112.957 77.8356 112.483 78.4821C111.951 79.2064 111.443 80.0747 111.076 80.9515L116.28 83.1265C116.456 82.705 116.733 82.2228 117.03 81.8174C117.176 81.6188 117.304 81.4699 117.398 81.3732C117.51 81.2583 117.507 81.2876 117.38 81.3611L114.548 76.4846ZM111.076 80.9521C110.3 82.8101 110.04 84.7768 110.595 86.7132C111.146 88.6364 112.403 90.1842 114.019 91.4035L117.415 86.9014C116.498 86.2091 116.145 85.6099 116.016 85.1591C115.891 84.7216 115.878 84.0874 116.28 83.1259L111.076 80.9521ZM114.019 91.4034C114.177 91.5228 114.294 91.6155 114.381 91.6898C114.424 91.7262 114.456 91.7551 114.48 91.7774C114.504 91.7997 114.517 91.8133 114.522 91.8187C114.533 91.8307 114.502 91.7999 114.457 91.7283C114.434 91.6918 114.408 91.6456 114.382 91.5901C114.356 91.5342 114.331 91.4728 114.311 91.4067C114.29 91.3406 114.274 91.2752 114.264 91.2121C114.253 91.1492 114.248 91.0932 114.246 91.046C114.242 90.9532 114.251 90.9013 114.25 90.9076C114.249 90.9102 114.247 90.9242 114.241 90.9515C114.235 90.9789 114.225 91.0165 114.211 91.0664C114.182 91.1687 114.14 91.3026 114.077 91.4824L119.403 93.3381C119.678 92.5485 120.149 91.1747 119.691 89.7177C119.242 88.2855 118.091 87.4109 117.415 86.9014L114.019 91.4034ZM114.077 91.4817C113.353 93.5583 113.464 95.4973 114.305 97.5283L119.516 95.3699C119.161 94.5152 119.169 94.0069 119.402 93.3388L114.077 91.4817ZM114.305 97.5283C115.413 100.201 117.705 101.982 120.457 101.992C123.155 102.002 125.492 100.309 126.803 97.7717L121.794 95.1814C121.241 96.2512 120.633 96.3532 120.478 96.3526C120.376 96.3522 120.253 96.324 120.106 96.2157C119.954 96.104 119.719 95.8614 119.516 95.3698L114.305 97.5283ZM126.804 97.7715C126.958 97.4734 127.053 97.3413 127.099 97.2864C127.118 97.263 127.125 97.2581 127.12 97.2625C127.118 97.2643 127.115 97.2666 127.112 97.2689C127.108 97.2713 127.107 97.2723 127.107 97.2721C127.138 97.2544 127.394 97.1233 128.506 97.0175L127.972 91.4034C126.743 91.5203 125.443 91.7234 124.295 92.3836C123.034 93.1089 122.32 94.1639 121.794 95.1816L126.804 97.7715ZM128.506 97.0175C129.125 96.9586 129.748 96.9796 130.238 97.0526C130.482 97.0888 130.652 97.1318 130.748 97.1636C130.871 97.204 130.781 97.1945 130.605 97.0604L134.021 92.5729C133.099 91.8712 131.905 91.5989 131.068 91.4744C130.107 91.3314 129.025 91.303 127.972 91.4034L128.506 97.0175ZM130.606 97.0608C134.044 99.6765 138.084 98.6969 140.463 96.4752C142.851 94.2437 144.084 90.2449 141.494 86.7029L136.942 90.0316C137.283 90.4991 137.325 90.8831 137.275 91.1982C137.217 91.5641 137.003 91.9895 136.613 92.354C135.82 93.095 134.84 93.1963 134.02 92.5725L130.606 97.0608ZM141.494 86.7026C141.417 86.5976 141.406 86.5615 141.414 86.5816C141.426 86.6113 141.441 86.6639 141.445 86.7193C141.449 86.7676 141.44 86.7634 141.457 86.6789C141.475 86.5878 141.517 86.4308 141.611 86.1809L136.335 84.1887C136.007 85.0583 135.738 86.0602 135.822 87.1515C135.911 88.3128 136.371 89.252 136.942 90.0318L141.494 86.7026ZM141.611 86.1806C142.831 82.9503 142.177 79.6267 139.927 77.5302C137.654 75.4129 134.282 75.0429 131.195 76.6396L133.786 81.6487C135.013 81.0139 135.755 81.3516 136.082 81.6562C136.431 81.9815 136.862 82.794 136.335 84.189L141.611 86.1806ZM131.196 76.6391C130.443 77.028 129.72 77.4965 129.143 77.9762C128.861 78.2108 128.544 78.5059 128.269 78.8503C128.107 79.0547 127.484 79.8369 127.484 80.962H133.123C133.123 81.4991 132.958 81.8827 132.881 82.041C132.793 82.2195 132.709 82.3284 132.682 82.3617C132.63 82.427 132.634 82.4079 132.748 82.3129C132.964 82.1336 133.335 81.882 133.785 81.6493L131.196 76.6391ZM127.484 80.962C127.484 80.0663 127.915 79.4552 128.187 79.1664C128.447 78.8904 128.692 78.7594 128.765 78.7215C128.921 78.6416 128.962 78.6523 128.779 78.6922C128.459 78.7621 127.885 78.8288 127.163 78.8288V84.4683C128.168 84.4683 129.164 84.3806 129.983 84.2017C130.369 84.1172 130.872 83.9799 131.346 83.7359C131.579 83.6159 131.948 83.3988 132.292 83.0335C132.648 82.6556 133.123 81.9522 133.123 80.962H127.484ZM127.163 78.8288C126.087 78.8288 125.577 78.7313 125.27 78.621C125.019 78.5309 124.737 78.3741 124.256 77.8925L120.268 81.8803C121.138 82.7506 122.102 83.4749 123.362 83.9279C124.566 84.3607 125.83 84.4683 127.163 84.4683V78.8288ZM124.256 77.8925C122.976 76.6133 121.413 75.72 119.647 75.4498C117.867 75.1775 116.113 75.5744 114.547 76.4851L117.381 81.3606C117.964 81.0217 118.428 80.9684 118.794 81.0244C119.173 81.0825 119.683 81.2958 120.268 81.8803L124.256 77.8925ZM153.15 99.0965C153.385 107.882 153.616 113.357 153.993 116.425C154.089 117.204 154.202 117.899 154.346 118.49C154.474 119.017 154.687 119.73 155.113 120.352C155.341 120.686 155.721 121.128 156.316 121.445C156.966 121.791 157.693 121.891 158.384 121.762C159.539 121.546 160.25 120.76 160.502 120.472L156.253 116.764C156.253 116.764 156.253 116.763 156.255 116.762C156.256 116.76 156.259 116.758 156.262 116.754C156.268 116.748 156.278 116.738 156.291 116.725C156.317 116.7 156.366 116.655 156.438 116.602C156.565 116.509 156.874 116.307 157.347 116.218C157.883 116.118 158.461 116.197 158.969 116.468C159.422 116.709 159.666 117.021 159.766 117.166C159.933 117.41 159.911 117.511 159.825 117.156C159.754 116.865 159.673 116.41 159.59 115.737C159.253 112.994 159.025 107.818 158.787 98.9457L153.15 99.0965ZM160.502 120.471C160.88 120.038 161.032 119.594 161.071 119.483C161.134 119.301 161.172 119.139 161.194 119.033C161.239 118.817 161.268 118.597 161.289 118.413C161.331 118.032 161.363 117.554 161.388 117.019C161.44 115.938 161.474 114.453 161.49 112.686C161.522 109.145 161.485 104.372 161.372 99.2166L155.734 99.3401C155.846 104.453 155.882 109.166 155.85 112.635C155.835 114.374 155.802 115.775 155.755 116.75C155.732 117.244 155.706 117.586 155.684 117.792C155.671 117.902 155.666 117.916 155.675 117.873C155.679 117.854 155.698 117.763 155.742 117.635C155.762 117.58 155.894 117.175 156.252 116.765L160.502 120.471ZM161.372 99.2168C161.181 90.4679 161.059 85.6646 160.817 83.0393C160.703 81.8098 160.537 80.6404 160.107 79.7293C159.852 79.1881 159.456 78.6277 158.838 78.1975C158.246 77.7845 157.661 77.6441 157.334 77.5815L156.273 83.1203C156.263 83.1183 155.959 83.0643 155.615 82.8249C155.247 82.5683 155.069 82.2686 155.007 82.1369C154.964 82.0447 155.084 82.2886 155.201 83.5584C155.421 85.9317 155.54 90.4709 155.734 99.3399L161.372 99.2168ZM157.335 77.5816C157.183 77.5526 156.522 77.4098 155.773 77.5733C154.782 77.7896 154.055 78.4142 153.621 79.1567C153.271 79.7559 153.131 80.3924 153.056 80.8489C152.974 81.3503 152.926 81.9311 152.897 82.579C152.784 85.1118 152.906 89.9835 153.15 99.0964L158.787 98.9458C158.54 89.6923 158.43 85.1042 158.531 82.831C158.556 82.2775 158.591 81.9477 158.621 81.763C158.659 81.5333 158.662 81.708 158.49 82.0034C158.233 82.4422 157.718 82.9211 156.976 83.0831C156.475 83.1923 156.099 83.0869 156.273 83.1202L157.335 77.5816ZM119.09 84.282C119.633 85.111 120.513 86.4951 122.436 86.947C123.195 87.1252 123.973 87.1249 124.678 87.088C125.402 87.05 126.281 86.9566 127.306 86.8416L126.678 81.2372C125.626 81.3552 124.913 81.4284 124.383 81.4562C123.833 81.485 123.695 81.4496 123.726 81.457C123.868 81.4903 124.049 81.5897 124.157 81.6939C124.169 81.7048 124.099 81.6374 123.807 81.1917L119.09 84.282ZM127.306 86.8416C128.906 86.6622 130.301 86.4141 131.445 86.0263C132.57 85.6449 133.772 85.0223 134.584 83.8744L129.98 80.6181C130.148 80.3801 130.231 80.4832 129.634 80.6854C129.056 80.8813 128.128 81.0747 126.678 81.2372L127.306 86.8416ZM134.584 83.874C134.763 83.6216 134.813 83.695 134.632 83.736C134.46 83.7749 134.279 83.7338 134.154 83.6516C134.033 83.5729 133.992 83.4801 133.983 83.4446C133.97 83.3946 134.021 83.5008 133.885 83.8007L139.016 86.139C140.266 83.396 139.519 80.4206 137.238 78.9304C136.14 78.2133 134.767 77.9234 133.387 78.2356C131.999 78.5498 130.828 79.4182 129.979 80.6185L134.584 83.874ZM133.884 83.8009C133.443 84.7698 133.174 85.8246 133.296 87.061C133.407 88.1831 133.824 89.2401 134.309 90.2556L139.399 87.828C138.995 86.9812 138.921 86.6366 138.908 86.5055C138.904 86.4649 138.906 86.4487 138.911 86.4282C138.917 86.3973 138.938 86.3114 139.016 86.1388L133.884 83.8009ZM134.309 90.2558C134.567 90.7973 134.713 91.1279 134.797 91.3531C134.836 91.4577 134.846 91.5008 134.846 91.4998C134.845 91.4966 134.828 91.4248 134.826 91.3039C134.823 91.1746 134.838 91.0163 134.884 90.8457C134.93 90.6774 134.993 90.548 135.042 90.4643C135.087 90.3878 135.116 90.3567 135.096 90.3809C135.074 90.4062 135.027 90.4583 134.931 90.5546L138.92 94.5409C139.443 94.0175 140.5 92.9403 140.464 91.1885C140.45 90.4861 140.26 89.8634 140.084 89.3906C139.904 88.9065 139.66 88.3759 139.399 87.8277L134.309 90.2558ZM134.932 90.5533C134.78 90.7057 134.671 90.8092 134.589 90.8824C134.505 90.9565 134.48 90.9713 134.498 90.9589C134.521 90.9442 134.616 90.8836 134.775 90.8292C134.945 90.7708 135.143 90.7353 135.35 90.7375C135.55 90.7396 135.696 90.7758 135.769 90.7987C135.834 90.8194 135.843 90.8301 135.777 90.7952C135.711 90.7608 135.607 90.7003 135.446 90.5965C135.287 90.4937 135.098 90.3645 134.862 90.1994L131.626 94.8185C132.123 95.1661 132.646 95.5211 133.154 95.7878C133.662 96.0547 134.397 96.3673 135.291 96.3767C136.262 96.3869 137.041 96.0401 137.617 95.6576C138.128 95.3187 138.576 94.8846 138.919 94.5421L134.932 90.5533ZM134.862 90.1993C132.693 88.6808 130.464 88.6844 127.257 89.0567L127.908 94.6586C129.445 94.4801 130.279 94.461 130.805 94.5215C131.205 94.5676 131.389 94.6525 131.627 94.8186L134.862 90.1993ZM127.258 89.0567C125.594 89.2498 123.973 89.4476 122.749 90.0884C121.109 90.9466 120.503 92.3462 120.107 93.3936L125.383 95.3854C125.543 94.9615 125.607 94.8664 125.604 94.8712C125.551 94.9476 125.447 95.0413 125.363 95.0851C125.348 95.0934 125.469 95.0283 125.928 94.9379C126.379 94.8491 126.998 94.7643 127.908 94.6586L127.258 89.0567ZM120.107 93.3939C120.036 93.5815 119.97 93.7099 119.92 93.7906C119.87 93.872 119.847 93.889 119.867 93.8699C119.889 93.8492 119.962 93.7863 120.094 93.7287C120.233 93.6686 120.398 93.6307 120.572 93.6307V99.2702C123.263 99.2702 124.745 97.076 125.383 95.3851L120.107 93.3939ZM120.572 93.6307C120.492 93.6307 120.619 93.6146 120.841 93.7317C121.094 93.8653 121.325 94.0979 121.46 94.3827C121.58 94.6372 121.563 94.8027 121.565 94.7749C121.567 94.7458 121.585 94.5968 121.696 94.3158L116.452 92.2415C115.95 93.5099 115.613 95.2096 116.36 96.7912C117.228 98.6288 119.02 99.2702 120.572 99.2702V93.6307ZM121.696 94.3161C123.116 90.7269 122.826 86.4956 119.818 83.8814L116.119 88.1376C116.745 88.6825 117.31 90.0731 116.452 92.2412L121.696 94.3161ZM119.818 83.8814C119.334 83.4607 119.1 83.0168 119.031 82.7716C118.998 82.655 119.025 82.6663 119.006 82.7861C118.984 82.9263 118.9 83.1781 118.67 83.4077L114.683 79.42C113.186 80.9168 113.215 82.9233 113.602 84.2975C114.005 85.7344 114.914 87.0908 116.119 88.1376L119.818 83.8814ZM118.671 83.407C118.418 83.6604 118.171 83.7111 118.12 83.7183C118.076 83.7245 118.139 83.7091 118.299 83.7538C118.452 83.7961 118.624 83.8741 118.781 83.9827C118.937 84.0912 119.037 84.201 119.09 84.2827L123.807 81.191C122.827 79.6964 121.289 78.7305 119.806 78.3193C118.442 77.9411 116.262 77.8391 114.682 79.4206L118.671 83.407ZM125.066 84.4092C123.606 84.5705 122.274 84.7814 121.238 85.2011C120.683 85.4253 120.061 85.7674 119.531 86.3261C118.965 86.9229 118.638 87.6259 118.501 88.3462L124.041 89.4004C123.992 89.6559 123.858 89.959 123.622 90.2075C123.423 90.4179 123.268 90.4631 123.354 90.4285C123.44 90.3935 123.65 90.3251 124.064 90.2451C124.468 90.167 124.995 90.0908 125.685 90.0147L125.066 84.4092ZM118.5 88.3487C118.431 88.7162 118.274 89.6357 118.688 90.6107C119.187 91.7867 120.168 92.3215 120.872 92.5518C121.504 92.7583 122.18 92.8153 122.73 92.8396C123.325 92.8659 124.037 92.8607 124.852 92.8427L124.727 87.2046C123.933 87.2221 123.376 87.2231 122.979 87.2056C122.536 87.186 122.496 87.1493 122.625 87.1915C122.713 87.2203 122.937 87.304 123.192 87.5054C123.473 87.7264 123.721 88.0336 123.879 88.4075C124.027 88.7564 124.051 89.0519 124.052 89.2065C124.053 89.3533 124.035 89.4327 124.041 89.3979L118.5 88.3487ZM124.852 92.8427C127.553 92.7825 129.807 92.5765 131.46 92.1543C132.269 91.9477 133.159 91.6353 133.906 91.101C134.705 90.5302 135.59 89.498 135.59 87.9852H129.951C129.951 87.0884 130.499 86.6043 130.627 86.5128C130.704 86.4578 130.59 86.556 130.064 86.6902C129.048 86.9499 127.311 87.147 124.727 87.2046L124.852 92.8427ZM135.59 87.9852C135.59 86.8418 135.093 85.7051 134.021 84.9558C133.173 84.3633 132.196 84.1832 131.474 84.1077C129.982 83.9516 127.842 84.1021 125.066 84.4093L125.686 90.0146C128.528 89.7001 130.086 89.6328 130.887 89.7166C131.311 89.761 131.129 89.8152 130.79 89.5781C130.577 89.4292 130.333 89.1861 130.159 88.8361C129.989 88.4944 129.951 88.1835 129.951 87.9852H135.59ZM92.0034 101.967C91.688 106.412 91.5391 110.482 91.558 113.522C91.5674 115.032 91.6183 116.349 91.7224 117.353C91.7732 117.843 91.8457 118.351 91.9615 118.802C92.0184 119.023 92.1087 119.324 92.2588 119.634C92.374 119.873 92.706 120.513 93.437 120.965L96.3996 116.166C97.0455 116.565 97.2972 117.099 97.3372 117.182C97.412 117.337 97.4321 117.432 97.4238 117.399C97.4092 117.342 97.3712 117.151 97.3318 116.771C97.2553 116.034 97.2063 114.926 97.1974 113.487C97.1796 110.632 97.3204 106.713 97.6288 102.366L92.0034 101.967ZM93.4364 120.964C93.8257 121.205 94.4462 121.522 95.2317 121.592C96.1354 121.672 97.0264 121.402 97.7424 120.809C98.3673 120.292 98.7141 119.65 98.9162 119.171C99.1278 118.671 99.2721 118.129 99.3801 117.598C99.7915 115.579 99.9656 112.17 100.087 107.102L94.4487 106.967C94.3243 112.18 94.1452 115.044 93.8541 116.473C93.7865 116.805 93.7333 116.948 93.7218 116.976C93.7008 117.025 93.7989 116.753 94.1457 116.466C94.5836 116.103 95.1671 115.924 95.7302 115.974C95.9649 115.995 96.1395 116.051 96.2401 116.09C96.3401 116.129 96.3953 116.163 96.4003 116.166L93.4364 120.964ZM100.087 107.102C100.199 102.377 100.237 99.4732 100.102 97.7336C100.038 96.9133 99.9164 95.9735 99.5318 95.1652C99.3123 94.7038 98.9738 94.2099 98.451 93.8077C97.9243 93.4026 97.3768 93.2187 96.9379 93.1337L95.8662 98.6705C95.674 98.6333 95.3457 98.534 95.0128 98.278C94.6838 98.0249 94.5137 97.7444 94.4394 97.5882C94.3451 97.3901 94.4212 97.4276 94.479 98.1706C94.5868 99.5575 94.5639 102.124 94.4487 106.967L100.087 107.102ZM96.9399 93.1341C96.1193 92.9747 94.8861 93.0244 93.8607 94.0073C93.0954 94.7408 92.808 95.6889 92.6673 96.2445C92.3618 97.4511 92.1899 99.3408 92.0034 101.967L97.6288 102.366C97.8265 99.581 97.9777 98.2471 98.1343 97.6286C98.2246 97.2717 98.203 97.6569 97.7631 98.0786C97.4843 98.3457 97.1114 98.5577 96.6827 98.6515C96.2923 98.7369 95.9909 98.6947 95.8642 98.6701L96.9399 93.1341ZM78.9672 108.279C78.7633 108.61 78.6727 108.912 78.6478 108.994C78.6082 109.126 78.5818 109.243 78.5651 109.323C78.5313 109.486 78.506 109.652 78.4865 109.796C78.4464 110.092 78.4085 110.463 78.372 110.878C78.2984 111.717 78.2201 112.863 78.1415 114.222C77.9839 116.947 77.8207 120.604 77.6894 124.541L83.3257 124.729C83.4559 120.825 83.6173 117.216 83.7716 114.548C83.8489 113.211 83.9235 112.129 83.9899 111.372C84.0236 110.988 84.0525 110.719 84.075 110.553C84.0868 110.466 84.0917 110.446 84.0868 110.47C84.0846 110.48 84.0724 110.539 84.0467 110.624C84.0356 110.661 83.9585 110.929 83.7678 111.239L78.9672 108.279ZM77.6894 124.541C77.462 131.341 77.344 135.091 77.4673 137.072C77.4994 137.587 77.553 138.096 77.6565 138.56C77.7519 138.989 77.9449 139.648 78.4266 140.25C79.0139 140.984 79.8097 141.366 80.5981 141.465C81.2101 141.541 81.7472 141.432 81.909 141.401L80.8485 135.862C80.6845 135.893 80.9356 135.823 81.2984 135.869C81.8375 135.936 82.4209 136.216 82.8294 136.726C83.1324 137.105 83.1802 137.42 83.1612 137.335C83.1502 137.285 83.12 137.11 83.0959 136.721C82.9942 135.088 83.0921 131.716 83.3257 124.729L77.6894 124.541ZM81.9093 141.4C82.2208 141.341 82.7314 141.217 83.2645 140.893C83.8331 140.547 84.2572 140.079 84.5614 139.561C85.0756 138.685 85.2665 137.611 85.3883 136.638C85.6488 134.556 85.7861 130.86 85.9924 124.373L80.3557 124.194C80.1447 130.829 80.0117 134.185 79.7925 135.938C79.6745 136.88 79.5733 136.918 79.6984 136.705C79.8081 136.518 80.0134 136.269 80.3335 136.075C80.4767 135.988 80.6053 135.935 80.6984 135.903C80.7869 135.873 80.8454 135.862 80.8482 135.862L81.9093 141.4ZM85.9924 124.374C86.1162 120.484 86.1936 116.88 86.2182 114.205C86.2305 112.87 86.2299 111.748 86.2144 110.93C86.2068 110.526 86.195 110.165 86.1765 109.879C86.1675 109.74 86.1544 109.576 86.1324 109.414C86.1217 109.335 86.103 109.212 86.0704 109.072C86.055 109.006 85.9733 108.632 85.7338 108.228L80.8835 111.105C80.6548 110.72 80.5834 110.375 80.5779 110.352C80.5552 110.254 80.546 110.186 80.5443 110.173C80.5402 110.144 80.5432 110.158 80.5487 110.242C80.559 110.401 80.5688 110.662 80.5759 111.037C80.5899 111.777 80.5911 112.838 80.579 114.153C80.5548 116.776 80.4786 120.335 80.3557 124.194L85.9924 124.374ZM85.7331 108.227C84.0207 105.343 80.3347 106.069 78.9696 108.275L83.7654 111.243C83.509 111.657 83.0387 111.949 82.4884 111.976C81.9176 112.003 81.252 111.726 80.8842 111.106L85.7331 108.227ZM182.612 112.508C182.424 112.842 182.349 113.137 182.326 113.227C182.294 113.356 182.277 113.464 182.267 113.528C182.249 113.656 182.241 113.767 182.237 113.831C182.229 113.969 182.226 114.111 182.225 114.233C182.224 114.487 182.23 114.816 182.24 115.191C182.261 115.948 182.304 116.993 182.361 118.219C182.475 120.677 182.65 123.921 182.842 127.182C183.034 130.443 183.243 133.732 183.423 136.279C183.513 137.552 183.597 138.65 183.669 139.471C183.705 139.88 183.739 140.235 183.77 140.516C183.79 140.693 183.834 141.103 183.926 141.432L189.361 139.928C189.413 140.118 189.41 140.2 189.374 139.884C189.35 139.672 189.321 139.37 189.287 138.98C189.219 138.204 189.138 137.142 189.049 135.881C188.87 133.363 188.663 130.098 188.472 126.851C188.281 123.603 188.107 120.384 187.994 117.958C187.938 116.742 187.897 115.739 187.878 115.035C187.868 114.678 187.864 114.423 187.865 114.263C187.865 114.178 187.867 114.157 187.866 114.176C187.866 114.181 187.862 114.244 187.849 114.336C187.842 114.381 187.827 114.474 187.798 114.592C187.779 114.669 187.707 114.955 187.522 115.283L182.612 112.508ZM183.926 141.434C184.227 142.518 185.033 143.016 185.208 143.122C185.493 143.296 185.752 143.388 185.883 143.43C186.166 143.522 186.435 143.569 186.612 143.595C186.998 143.651 187.434 143.676 187.854 143.676V138.037C187.635 138.037 187.479 138.022 187.426 138.014C187.383 138.008 187.471 138.017 187.624 138.066C187.691 138.088 187.898 138.157 188.146 138.309C188.273 138.387 188.48 138.527 188.694 138.751C188.907 138.975 189.204 139.362 189.36 139.926L183.926 141.434ZM187.854 143.676C188.18 143.676 188.736 143.643 189.34 143.376C190.004 143.083 190.508 142.608 190.852 142.059C191.41 141.17 191.516 140.118 191.563 139.42C191.67 137.837 191.562 135.124 191.348 130.676L185.715 130.948C185.937 135.558 186.016 137.866 185.936 139.041C185.89 139.723 185.811 139.483 186.075 139.062C186.272 138.748 186.602 138.42 187.064 138.216C187.466 138.039 187.79 138.037 187.854 138.037V143.676ZM191.348 130.676C191.017 123.811 190.729 119.335 190.371 116.565C190.198 115.216 189.983 114.048 189.648 113.162C189.406 112.519 188.536 110.547 186.284 110.547V116.187C184.587 116.187 184.192 114.674 184.371 115.151C184.459 115.383 184.612 115.995 184.778 117.285C185.102 119.794 185.382 124.042 185.715 130.948L191.348 130.676ZM186.284 110.547C185.62 110.547 184.976 110.696 184.424 110.936C183.96 111.137 183.13 111.59 182.611 112.51L187.523 115.281C187.325 115.632 187.093 115.834 186.973 115.927C186.841 116.028 186.733 116.082 186.671 116.109C186.561 116.156 186.443 116.187 186.284 116.187V110.547ZM59.1985 130.888C58.9605 131.273 58.8742 131.628 58.8577 131.692C58.824 131.824 58.8051 131.935 58.795 131.999C58.7742 132.132 58.7624 132.256 58.7553 132.343C58.7403 132.526 58.7298 132.743 58.7218 132.969C58.7053 133.431 58.6941 134.072 58.6871 134.865C58.673 136.456 58.6752 138.74 58.6918 141.607C58.725 147.345 58.8164 155.467 58.9543 165.163C59.2302 184.558 59.6927 210.279 60.2504 235.897L65.8886 235.774C65.3311 210.169 64.8689 184.462 64.5932 165.083C64.4554 155.392 64.3643 147.289 64.3312 141.574C64.3146 138.715 64.3127 136.464 64.3264 134.915C64.3333 134.137 64.344 133.556 64.3577 133.17C64.3648 132.972 64.3715 132.858 64.3758 132.806C64.3783 132.775 64.3768 132.807 64.3667 132.871C64.362 132.901 64.3485 132.984 64.3205 133.093C64.3096 133.136 64.2291 133.475 63.9969 133.851L59.1985 130.888ZM60.2504 235.897C60.4228 243.812 60.5798 248.858 60.7912 251.931C60.8949 253.441 61.0202 254.62 61.2033 255.464C61.2889 255.859 61.4326 256.408 61.7205 256.921C61.9846 257.393 62.8137 258.567 64.4383 258.567V252.928C65.8768 252.928 66.5343 253.976 66.6394 254.163C66.7681 254.393 66.7652 254.502 66.7146 254.268C66.6253 253.857 66.5196 253.031 66.4174 251.545C66.2167 248.626 66.0615 243.716 65.8886 235.774L60.2504 235.897ZM64.4383 258.567C65.1769 258.567 65.867 258.374 66.4257 258.108C66.9418 257.862 67.667 257.4 68.1622 256.599L63.3646 253.635C63.5203 253.383 63.6849 253.233 63.7749 253.161C63.8718 253.084 63.951 253.04 64.0012 253.016C64.0795 252.979 64.2142 252.928 64.4383 252.928V258.567ZM68.1625 256.598C68.3945 256.223 68.48 255.88 68.4967 255.816C68.5299 255.689 68.5482 255.583 68.5576 255.525C68.5768 255.406 68.5868 255.3 68.5922 255.237C68.6037 255.102 68.6109 254.954 68.6161 254.816C68.6268 254.531 68.6341 254.146 68.6389 253.684C68.6486 252.753 68.6492 251.422 68.6421 249.758C68.6278 246.426 68.5821 241.711 68.5133 236.074C68.3755 224.798 68.1443 209.81 67.8834 194.772C67.6226 179.734 67.3318 164.643 67.0747 153.159C66.9462 147.418 66.826 142.573 66.722 139.086C66.6701 137.344 66.6219 135.932 66.5785 134.913C66.5568 134.405 66.5358 133.982 66.5154 133.659C66.5015 133.44 66.4761 133.017 66.4086 132.697L60.8905 133.861C60.8546 133.691 60.8636 133.644 60.8871 134.015C60.904 134.281 60.9231 134.66 60.9441 135.153C60.986 136.136 61.0333 137.52 61.085 139.255C61.1884 142.72 61.3082 147.549 61.4367 153.285C61.6935 164.756 61.984 179.838 62.2448 194.87C62.5056 209.902 62.7365 224.88 62.8742 236.143C62.943 241.776 62.9884 246.473 63.0027 249.783C63.0098 251.439 63.009 252.736 62.9997 253.625C62.9951 254.073 62.9884 254.397 62.9806 254.604C62.9787 254.654 62.9769 254.692 62.9754 254.721C62.9738 254.75 62.9728 254.761 62.9732 254.757C62.9734 254.755 62.9743 254.744 62.9763 254.726C62.9781 254.71 62.9822 254.676 62.9894 254.631C62.9955 254.593 63.0106 254.504 63.0404 254.39C63.0538 254.339 63.1358 254.005 63.3644 253.635L68.1625 256.598ZM66.4088 132.698C66.188 131.65 65.5833 129.933 63.908 129.19C62.9252 128.754 61.8483 128.803 60.9277 129.257C60.0975 129.666 59.5492 130.32 59.199 130.887L63.9965 133.851C63.9939 133.856 63.9582 133.913 63.8756 133.996C63.7931 134.079 63.6457 134.204 63.4222 134.315C62.9 134.572 62.2258 134.613 61.6221 134.345C61.1132 134.119 60.902 133.788 60.8651 133.726C60.8174 133.646 60.8502 133.67 60.8904 133.86L66.4088 132.698Z" fill="black" mask="url(#path-3-inside-1_139_3)"/>
<path d="M145.976 120.599L146.189 119.206L145.976 120.599C154.639 121.923 158.995 123.276 165.392 126.59C173.86 130.975 179.786 137.496 185.12 148.526C185.905 150.148 186.655 151.63 187.234 152.713C187.521 153.251 187.775 153.707 187.973 154.035C188.07 154.195 188.169 154.352 188.264 154.481C188.264 154.482 188.265 154.483 188.266 154.484C188.546 155.398 188.717 156.101 188.797 156.639C188.876 157.172 188.848 157.438 188.823 157.546C188.823 157.546 188.822 157.547 188.821 157.547C187.972 155.347 186.141 151.343 184.345 147.756C180.099 139.274 174.951 133.005 168.095 128.546C161.254 124.097 152.823 121.524 142.128 120.244L141.96 121.644L142.128 120.244C133.685 119.234 124.551 119.878 115.843 122.087C97.423 126.759 84.5503 138.841 78.2528 157.182C82.236 144.497 89.9683 134.395 100.718 127.91L100.718 127.91C112.228 120.967 129.652 118.103 145.976 120.599ZM75.1669 185.662C75.2723 180.49 75.4076 176.032 75.5697 172.681C75.3425 179.431 75.2859 191.114 75.1829 213.675C75.1421 222.587 75.085 230.987 75.0199 238.171C74.9355 231.806 74.8922 224.631 74.8901 217.335C74.8868 206.244 74.9789 194.881 75.1669 185.662ZM74.6457 260.934C74.6456 260.934 74.6467 260.923 74.6496 260.905C74.6473 260.926 74.6459 260.935 74.6457 260.934ZM75.8671 260.414C75.8668 260.413 75.8666 260.413 75.8663 260.413C75.8821 260.421 75.883 260.423 75.8671 260.414Z" stroke="black" stroke-width="2.81975"/>
<path d="M184.598 99.4924C169.81 84.3612 151.288 65.469 143.438 57.5105L129.165 43.0398L125.811 46.5641C109.335 63.8775 82.0617 96.5735 57.7738 128.13L45.9908 143.439V204.443V265.447L62.5958 265.258L79.2 265.069C103.084 265.258 111.19 268.972 79.2 268.905C76.2861 268.899 73.2528 268.897 70.1433 268.898C29.5599 268.922 30.2493 268.974 28.5612 265.774C27.5419 263.843 27.0556 251.663 26.2521 207.976C25.8742 187.429 25.3703 166.098 25.132 160.574L24.6986 150.53H16.5335C9.22487 150.53 8.1246 150.364 6.04387 148.944C3.62622 147.295 1.58496 143.326 1.58496 140.273C1.58496 139.299 2.03466 137.426 2.58374 136.112C4.59187 131.307 111.723 4.35532 115.167 2.70032C117.441 1.60709 116.118 1.4922 136.933 4.58722C147.214 6.11605 165.77 8.82199 178.167 10.6003C200.428 13.7926 216.804 16.2173 221.389 16.999C224.221 17.4825 227.284 20.2145 249.341 41.9396C258.258 50.7213 280.849 72.9109 299.544 91.2498C335.924 126.937 335.672 126.641 333.462 131.237C332.941 132.321 331.436 133.934 330.119 134.821C328.013 136.239 326.857 136.433 320.541 136.433H313.359L312.894 161.279C312.637 174.944 312.427 199.032 312.427 214.807C312.427 233.166 312.172 243.644 311.721 243.923" stroke="black" stroke-width="2.81975" stroke-linecap="round"/>
<path fill-rule="evenodd" clip-rule="evenodd" d="M197.347 26.6268C216.13 42.7327 217.291 43.9775 214.507 45.0453C213.459 45.4478 183.707 20.6214 182.825 18.6077C182.251 17.2995 183.76 15.5902 184.914 16.2394C185.423 16.5248 191.018 21.1994 197.347 26.6268ZM246.157 51.5481C265.596 68.5816 267.961 71.1268 264.89 71.7182C264.301 71.8317 255.582 64.7472 245.515 55.9746C222.197 35.6551 222.857 36.3007 224.005 34.9171C224.507 34.313 225.143 33.8182 225.42 33.8182C225.696 33.8182 235.028 41.7965 246.157 51.5481ZM156.091 39.8647C222.25 106.574 223.788 108.162 223.332 109.351C223.084 109.998 222.343 110.526 221.686 110.526C221.029 110.526 203.871 93.7945 183.557 73.3453C129.837 19.2674 130.435 19.8891 130.926 18.6077C131.163 17.9909 131.928 17.4855 132.626 17.4855C133.356 17.4855 143.328 26.9968 156.091 39.8647ZM188.684 40.2883C199.42 50.7335 207.798 59.4286 207.798 60.125C207.798 60.808 207.267 61.5706 206.617 61.8195C204.908 62.4757 166.505 24.1337 167.161 22.4259C167.412 21.7718 168.056 21.339 168.594 21.4644C169.131 21.5899 178.171 30.0609 188.684 40.2883ZM114.598 29.5012C114.88 31.4734 28.847 134.822 26.9235 134.822C24.7236 134.822 25.1867 132.633 28.1668 128.949C31.8582 124.387 100.088 42.615 107.544 33.8191C112.706 27.7285 114.213 26.8058 114.598 29.5012ZM244.525 64.3548C254.115 72.5636 261.015 78.9742 261.015 79.6755C261.015 82.1679 258.483 81.3031 253.789 77.2072C251.173 74.9248 243.719 68.5332 237.226 63.0029C230.733 57.4726 225.42 52.5499 225.42 52.0636C225.42 50.9513 226.113 50.2394 227.197 50.2394C227.658 50.2394 235.455 56.5909 244.525 64.3548ZM228.83 94.6953C233.545 99.7625 237.402 104.164 237.402 104.477C237.402 104.79 236.897 105.465 236.279 105.978C235.299 106.791 234.043 105.744 226.445 97.7819C218.394 89.3441 216.888 87.2006 218.136 85.9523C219.279 84.809 220.756 86.0171 228.83 94.6953Z" fill="black"/>
</svg>