<?xml version="1.0" encoding="UTF-8" standalone="no"?>
<!DOCTYPE svg PUBLIC "-//W3C//DTD SVG 1.1//EN" "http://www.w3.org/Graphics/SVG/1.1/DTD/svg11.dtd">
<svg width="100%" height="100%" viewBox="0 0 548 548" version="1.1" xmlns="http://www.w3.org/2000/svg" xmlns:xlink="http://www.w3.org/1999/xlink" xml:space="preserve" xmlns:serif="http://www.serif.com/" style="fill-rule:evenodd;clip-rule:evenodd;stroke-linejoin:round;stroke-miterlimit:2;">
    <g transform="matrix(1,0,0,1,-120.108,-126.157)">
        <g transform="matrix(0.952834,0,0,0.952834,6.91122,27.4159)">
            <circle cx="406.25" cy="391.079" r="287.45" style="fill:rgb(168,222,243);"/>
        </g>
        <g transform="matrix(-31.9368,-3.91113e-15,3.91113e-15,-31.9368,665.463,687.126)">
            <path d="M8.5,3C8.248,3 8.034,3.191 8.004,3.441L7.186,10.393C6.843,10.139 6.427,10.001 6,10C4.901,10 4,10.901 4,12C4,12.892 4.593,13.653 5.404,13.908L5.162,14.133C5.073,14.226 5.024,14.35 5.024,14.478C5.024,14.752 5.25,14.978 5.524,14.978C5.638,14.978 5.749,14.939 5.838,14.867L7.373,13.451C7.766,13.08 7.992,12.565 8,12.025C8,12.025 8.143,10.807 8.207,10.26C8.225,10.112 8.351,10 8.5,10L8.509,10C8.653,10 8.775,10.108 8.792,10.252C8.855,10.794 9,12.025 9,12.025L9,12.027C9.02,13.112 9.915,13.995 11,14C12.099,14 13,13.099 13,12C13,10.901 12.099,10 11,10C10.557,10 10.147,10.146 9.815,10.393L8.996,3.44C8.966,3.19 8.752,3 8.5,3" style="fill:none;fill-rule:nonzero;stroke:black;stroke-width:1.72px;"/>
            <path d="M8.5,3C8.248,3 8.034,3.191 8.004,3.441L7.186,10.393C6.843,10.139 6.427,10.001 6,10C4.901,10 4,10.901 4,12C4,12.892 4.593,13.653 5.404,13.908L5.162,14.133C5.073,14.226 5.024,14.35 5.024,14.478C5.024,14.752 5.25,14.978 5.524,14.978C5.638,14.978 5.749,14.939 5.838,14.867L7.373,13.451C7.766,13.08 7.992,12.565 8,12.025C8,12.025 8.143,10.807 8.207,10.26C8.225,10.112 8.351,10 8.5,10L8.509,10C8.653,10 8.775,10.108 8.792,10.252C8.855,10.794 9,12.025 9,12.025L9,12.027C9.02,13.112 9.915,13.995 11,14C12.099,14 13,13.099 13,12C13,10.901 12.099,10 11,10C10.557,10 10.147,10.146 9.815,10.393L8.996,3.44C8.966,3.19 8.752,3 8.5,3" style="fill:white;fill-rule:nonzero;"/>
        </g>
        <g transform="matrix(2.60767,0,0,2.60767,-489.621,-468.727)">
            <circle cx="307.742" cy="296.283" r="10.75" style="fill:rgb(252,198,198);"/>
        </g>
        <g transform="matrix(2.60767,0,0,2.60767,-327.047,-468.727)">
            <circle cx="307.742" cy="296.283" r="10.75" style="fill:rgb(252,198,198);"/>
        </g>
    </g>
</svg>
