<svg xmlns:xlink="http://www.w3.org/1999/xlink" xmlns="http://www.w3.org/2000/svg" width="362" height="293" viewBox="0 0 362 293" fill="none">
<path d="M180.316 260.087C167.33 260.088 160.84 259.589 147.35 260.087M171.825 266.58C168.329 266.582 164.836 267.08 160.84 266.58M157.344 266.58L151.849 266.081" stroke="black" stroke-width="1.25" stroke-linecap="round"/>
<path d="M213.283 177.671C213.282 181.241 218.842 183.839 223.772 184.91M243.751 178.17C242.759 181.479 236.578 184.362 232.763 185.094M223.772 184.91V178.67M223.772 184.91C226.685 185.543 229.901 185.643 232.763 185.094M232.763 185.094L232.263 178.67" stroke="black" stroke-width="2" stroke-linecap="round"/>
<path d="M256.738 178.17C256.738 181.74 262.297 184.339 267.227 185.41M287.207 178.67C286.215 181.978 280.033 184.862 276.218 185.593M267.227 185.41V179.169M267.227 185.41C270.14 186.043 273.357 186.142 276.218 185.593M276.218 185.593L275.719 179.169" stroke="black" stroke-width="2" stroke-linecap="round"/>
<path fill-rule="evenodd" clip-rule="evenodd" d="M200.89 111.666C200.26 114.5 191.573 157.328 187.309 178.387H214.404C214.36 178.236 214.32 178.082 214.282 177.924C214.741 173.528 218.011 164.383 226.986 163.753C236.777 163.066 241.106 173.417 241.386 178.387H257.862C257.804 178.235 257.746 178.08 257.69 177.924C258.149 173.397 261.39 164.226 270.68 163.753C279.662 163.296 284.637 173.666 285.043 178.387H312.289L303.235 140.795L300.873 117.964L312.289 87.2603C312.879 75.4512 313.312 52.1872 310.321 53.6043C306.581 55.3757 281.782 45.141 276.862 38.4491C272.925 33.0957 248.585 33.4631 236.907 34.316C237.563 35.6937 237.183 39.7875 230.412 45.141C223.642 50.4944 207.909 49.0773 200.89 47.6996L194.985 82.7333C197.216 91.1965 201.519 108.831 200.89 111.666ZM262.884 44.765C263.107 44.1672 263.471 43.4845 263.692 43.2478C264.196 42.707 264.372 42.7082 264.756 43.2551C265.284 44.0084 265.063 47.9334 264.271 51.8608C264.064 52.8841 263.921 53.7472 263.953 53.7787C263.985 53.8102 264.303 53.0616 264.661 52.1149C265.496 49.9072 266.683 47.5398 267.178 47.093C267.416 46.8789 267.7 46.7954 267.914 46.8773C268.206 46.9892 268.245 47.1772 268.156 48.0365C268.036 49.2001 265.797 57.5213 264.857 60.2957C264.516 61.3045 264.277 62.1699 264.326 62.2193C264.375 62.2687 264.656 61.7533 264.949 61.0742C265.56 59.6609 269.606 52.107 270.932 49.9018C272.349 47.5483 272.905 46.9188 273.507 46.9887C273.936 47.0384 274.034 47.1618 274.087 47.7183C274.172 48.6105 273.553 50.2993 270.734 56.856C269.439 59.8689 268.419 62.3738 268.468 62.4222C268.516 62.4706 269.432 61.1738 270.502 59.5403C278.134 47.8905 278.521 47.3954 279.064 48.5856C279.225 48.9376 279.176 49.3262 278.849 50.3074C278.42 51.5924 275.914 56.5703 274.467 59.0096C274.031 59.7438 273.718 60.3874 273.771 60.4402C273.824 60.4929 274.611 60.3524 275.521 60.1281C276.465 59.8953 278.188 59.6727 279.538 59.6094C281.535 59.5157 282.174 59.5637 283.661 59.9201C285.653 60.3971 288.483 61.6693 290.432 62.9645C294.544 65.6959 298.609 70.3919 300.077 74.1062C301.463 77.6127 301.623 82.0626 300.519 86.3776C299.083 91.9879 294.318 98.1187 288.333 102.059C282.712 105.759 276.407 107.038 269.1 105.96C265.415 105.417 260.201 103.706 256.232 101.738L253.39 100.328L251.595 101.178C246.57 103.556 240.426 104.784 234.733 104.547C231.634 104.419 229.548 104.05 226.761 103.138C222.696 101.807 219.852 100.029 216.713 96.8536C212.545 92.6385 209.384 87.2671 208.17 82.34C206.206 74.3626 207.98 67.8194 213.54 62.5426C216.041 60.1684 219.2 58.5879 223.311 57.6541C228.615 56.4492 233.752 56.9908 239.214 59.3307C240.432 59.8528 241.429 60.2446 241.429 60.2017C241.429 60.1586 240.667 58.3326 239.735 56.144C237.258 50.3247 236.873 49.3058 236.939 48.7414C236.971 48.4616 237.141 48.2054 237.317 48.1723C238.345 47.9777 240.462 51.1266 243.705 57.6748C245.046 60.3806 246.145 62.4895 246.149 62.3612C246.162 61.9161 245.546 59.2205 244.258 54.0837C242.929 48.7859 242.836 47.934 243.59 47.934C244.037 47.934 244.743 48.9063 246.018 51.2793C247.082 53.2598 247.807 55.0279 249.244 59.1507L250.307 62.2008L250.198 60.4298C250.139 59.4557 250.004 57.3304 249.899 55.707C249.69 52.4594 249.675 46.9918 249.874 46.0646C249.971 45.608 250.107 45.4742 250.472 45.4742C250.867 45.4742 251.003 45.649 251.314 46.5565C252.166 49.048 253.143 55.2227 253.38 59.6115C253.449 60.8932 253.566 61.823 253.64 61.6778C253.715 61.5325 253.885 60.5282 254.019 59.4458C254.294 57.233 255.818 49.2487 256.422 46.8657C256.949 44.7861 257.269 44.1951 257.87 44.1951C258.253 44.1951 258.389 44.3409 258.558 44.9331C258.882 46.0653 259.206 52.2215 259.111 55.4118C259.064 56.9851 259.095 58.0003 259.18 57.6748C259.983 54.6156 262.564 45.6177 262.884 44.765ZM258.563 86.8985C258.563 86.6344 256.677 85.756 255.649 85.5409C253.67 85.1275 250.565 85.3778 249.941 86.0012C249.585 86.3564 252.367 89.8113 253.494 90.4137C253.946 90.6557 254.082 90.6169 255.13 89.9473C256.237 89.2399 258.563 87.1738 258.563 86.8985ZM250.39 99.2308C251.784 98.503 252.434 98.0461 252.617 97.6636C252.76 97.3666 252.849 96.8489 252.815 96.5132L252.753 95.9026L252.374 96.3239C251.926 96.8219 248.626 99.0765 246.593 100.274C245.804 100.738 245.195 101.155 245.24 101.2C245.425 101.385 248.552 100.189 250.39 99.2308ZM260.601 101C259.57 100.477 257.003 98.5554 255.67 97.3105C255.216 96.8865 254.795 96.5395 254.734 96.5395C254.674 96.5395 254.624 96.8739 254.624 97.2828C254.624 98.0007 254.686 98.0676 256.451 99.2544C258.116 100.374 261.223 101.819 261.459 101.583C261.513 101.529 261.127 101.267 260.601 101Z" fill="black"/>
<ellipse cx="274.22" cy="77.9446" rx="3.99592" ry="5.99387" fill="black"/>
<ellipse cx="234.261" cy="76.9455" rx="3.99592" ry="5.99387" fill="black"/>
<path d="M207.583 6.04146C208.472 3.61079 209.609 2.14062 211.262 1.28697C212.549 0.621845 213.968 0.716887 215.716 1.5849C216.874 2.1601 217.613 2.75084 219.348 4.48746C223.124 8.26747 226.239 12.7453 232.438 23.3063C235.293 28.1684 236.67 30.4824 236.852 30.7187C236.871 30.7427 240.426 30.8 244.753 30.846C255.037 30.9558 258.262 31.2726 270.246 33.3525L275.859 34.3265L277.539 32.5994C278.463 31.6493 280.864 28.9238 282.876 26.5428C292.533 15.1094 299.122 8.50696 302.446 6.93249C305.19 5.63274 306.971 6.70974 307.756 10.143C308.731 14.4107 309.457 20.9862 310.129 31.6591C310.837 42.9118 311.106 46.2898 312.095 56.3555C313.468 70.3318 313.617 72.3103 313.62 76.7226C313.623 82.7288 312.858 88.3064 311.41 92.8106C311.106 93.7583 310.924 94.575 311.006 94.6257C311.088 94.6763 314.159 95.6954 317.829 96.8903C331.579 101.366 338.88 104.267 338.88 105.256C338.88 105.987 337.945 105.803 334.035 104.306C328.396 102.147 310.317 96.1134 310.144 96.3324C310.002 96.5103 308.827 99.4949 308.882 99.5357C308.917 99.5612 309.831 100.054 310.914 100.632C318.626 104.741 326.871 110.641 326.447 111.746C326.384 111.91 326.177 112.045 325.987 112.045C325.612 112.045 325.494 111.97 321.845 109.407C318.923 107.355 315.393 105.145 311.222 102.759L308.181 101.02L307.529 102.427C307.171 103.2 306.877 103.944 306.877 104.079C306.877 104.214 308.14 105.414 309.683 106.746C313.41 109.961 320.164 116.744 321.218 118.329C322.087 119.636 322.21 120.354 321.587 120.472C321.347 120.518 320.806 120.068 319.931 119.097C317.125 115.979 306.881 106.273 306.094 105.985C305.889 105.909 305.034 108.144 304.32 110.625C302.171 118.086 302.267 127.012 304.621 138.428C304.995 140.242 306.138 145.077 307.161 149.172C309.871 160.017 311.719 168.491 312.7 174.573L313.015 177.171H309.684L309.337 174.376C308.555 169.515 306.378 159.652 303.853 149.532C302.827 145.42 301.631 140.239 301.196 138.021C298.428 123.904 298.902 114.622 302.9 104.648L303.302 103.645L300.323 101.302C296.278 98.1204 296.004 97.8345 296.732 97.5552C297.404 97.2977 299.116 98.2845 302.146 100.677C303.069 101.406 303.891 101.982 303.973 101.957C304.054 101.931 304.383 101.357 304.703 100.68L305.286 99.4497L304.83 99.1512C304.579 98.987 302.699 97.9911 300.653 96.9381C298.074 95.6112 296.911 94.9099 296.863 94.6535C296.775 94.1784 297.19 93.9244 297.803 94.0781C298.517 94.257 301.41 95.5347 303.686 96.676C304.787 97.2282 305.764 97.68 305.857 97.68C305.949 97.68 306.254 97.1483 306.535 96.4985C307.007 95.4046 307.02 95.3036 306.705 95.1354C306.519 95.0354 304.952 94.5838 303.224 94.1316C299.179 93.0731 298.756 92.8986 298.837 92.3218C298.896 91.9087 298.991 91.8778 300.083 91.9129C300.732 91.9337 302.669 92.3001 304.385 92.727L307.507 93.5029L307.779 92.8503C308.176 91.9024 308.973 89.0884 309.319 87.4172C310.054 83.8571 310.297 81.0874 310.288 76.329C310.279 71.3366 310.117 69.0787 308.85 56.3555C307.845 46.2593 307.569 42.8014 306.98 32.9595C306.522 25.3044 306.291 22.957 306.282 25.8703C306.271 29.6368 305.867 41.5333 305.702 42.9458C305.474 44.904 305.004 45.9968 304.35 46.0893C303.291 46.2392 302.82 45.2012 302.462 41.9291L302.221 39.7273L301.976 40.908C301.548 42.9734 301.185 44.0777 300.753 44.6266C300.241 45.2758 299.61 45.2433 299.238 44.5485C298.888 43.8924 299.053 41.013 299.655 37.3117C299.907 35.7668 300.046 34.5713 299.965 34.6552C299.883 34.739 299.281 36.4016 298.626 38.3498C297.464 41.8078 297.043 42.5806 296.319 42.5806C295.782 42.5806 295.257 41.8197 295.267 41.0555C295.277 40.2328 296.241 36.8684 297.196 34.3246C298.112 31.8817 297.663 32.6265 296.253 35.89C294.187 40.6683 293.97 41.0063 292.963 41.0063C292.446 41.0063 291.713 40.1452 291.713 39.5383C291.713 38.7937 292.877 35.679 294.951 30.872C295.455 29.7041 295.456 29.6972 295.003 30.2372C294.752 30.5375 293.559 32.3085 292.354 34.1728C289.725 38.2388 288.915 39.2353 288.238 39.2353C287.035 39.2353 286.666 38.4055 287.253 37.0152C287.522 36.3774 291.269 30.2248 292.35 28.6444C293.117 27.5237 292.944 27.3988 292.096 28.4614C291.729 28.9215 290.629 30.2204 289.651 31.3484C288.673 32.4762 287.028 34.3801 285.997 35.5793C284.562 37.2476 283.993 37.7744 283.573 37.8228C282.862 37.9048 282.456 37.5561 282.456 36.8623C282.456 36.185 283.31 34.9161 287.349 29.5929C294.215 20.5432 297.115 17.1099 301.349 13.0164C304.564 9.90865 305.047 9.23151 303.47 10.0417C300.645 11.4933 294.532 17.7617 285.076 28.9042C280.752 33.9995 277.701 37.2224 276.933 37.5062C276.69 37.5959 273.919 37.2265 269.99 36.5811C257.828 34.5827 254.74 34.3157 243.803 34.3157C236.501 34.3157 236.281 34.3045 235.695 33.9023C234.599 33.1513 233.147 31.0487 230.177 25.9115C224.01 15.245 220.687 10.3736 217.149 6.81521C215.802 5.46036 215.145 5.16321 216.06 6.32325C218.883 9.90156 225.677 23.0502 229.999 33.3009C231.206 36.1637 231.113 37.1362 229.63 37.1362C229.171 37.1362 228.871 36.9656 228.45 36.464C228.14 36.0942 226.644 33.2802 225.127 30.2106C223.609 27.1412 222.322 24.6743 222.268 24.7286C222.214 24.7829 222.389 25.3495 222.658 25.9876C223.909 28.9581 225.536 34.4967 225.539 35.7969C225.542 37.1547 224.36 37.7331 223.587 36.7517C223.364 36.4681 222.867 35.2504 222.484 34.0459C221.453 30.8084 219.586 25.4406 219.516 25.511C219.482 25.5447 219.668 26.6225 219.928 27.9059C221.026 33.3064 221.299 36.768 220.696 37.6284C220.237 38.2837 219.27 38.1487 218.816 37.3659C218.628 37.0412 218.194 35.3144 217.852 33.5286C217.51 31.7428 217.166 30.1102 217.087 29.9009C217.009 29.6913 216.838 31.2429 216.708 33.3485C216.409 38.1681 216.339 38.6001 215.788 38.9608C215.177 39.3605 214.389 38.9854 214.134 38.1733C214.028 37.8373 213.876 36.0572 213.796 34.2173L213.65 30.872L213.225 34.9061C212.991 37.1248 212.737 39.2188 212.66 39.5592C212.346 40.9473 211.076 41.186 210.45 39.9752C210.171 39.4374 210.138 38.8878 210.226 36.2883C210.282 34.6081 210.257 33.4548 210.169 33.7254C210.082 33.9959 209.68 35.4571 209.277 36.9723C208.874 38.4875 208.409 40.0142 208.243 40.3648C207.71 41.4904 206.802 41.4035 206.562 40.2039C206.437 39.583 206.584 38.2949 207.715 30.0849C208.088 27.3791 208.657 23.2171 208.98 20.836C209.303 18.455 209.884 14.3438 210.272 11.6998C210.659 9.05598 210.942 6.79789 210.901 6.68179C210.802 6.4059 210.065 8.86471 209.579 11.0893C209.368 12.0546 208.659 16.4135 208.003 20.7758C206.101 33.4296 204.308 41.9143 201.214 52.9118C197.79 65.085 196.805 71.7855 197.207 80.1663C197.366 83.4801 198.037 88.5782 198.355 88.8966C198.489 89.0298 198.959 89.0158 199.787 88.8541C202.293 88.3649 205.284 88.0583 205.766 88.2413C206.3 88.4444 206.38 88.8568 205.954 89.2102C205.797 89.3405 204.18 89.7183 202.36 90.0497C200.54 90.3813 198.989 90.7068 198.912 90.7731C198.836 90.8394 198.911 91.4969 199.079 92.2342C199.332 93.3415 199.442 93.5523 199.711 93.4442C199.89 93.3724 201.197 92.9233 202.617 92.4463C205.246 91.5626 206.667 91.3371 207.069 91.7393C207.484 92.1543 206.685 92.6888 204.507 93.4523C203.348 93.8587 201.795 94.4596 201.056 94.7877C199.904 95.2991 199.728 95.4426 199.823 95.7942C199.884 96.0195 200.042 96.7132 200.172 97.3356C200.303 97.9581 200.478 98.4671 200.561 98.4671C200.644 98.4671 201.712 97.814 202.934 97.0155C207.003 94.3579 208.997 93.5413 208.997 94.5323C208.997 94.8282 207.984 95.5908 204.947 97.5832C201.777 99.6616 200.918 100.314 200.996 100.583C201.198 101.286 201.692 104.921 201.817 106.634C202.057 109.931 201.255 116.453 199.725 123.644C199.389 125.219 197.977 131.202 196.586 136.938C192.417 154.127 191.068 160.627 189.706 170.096C189.372 172.423 189.067 174.527 189.031 174.77V176.672L185.742 176.643L186.026 172.394C187.093 163.915 189.043 153.898 192.029 141.563C192.671 138.911 193.776 134.351 194.484 131.428C197.853 117.532 198.848 111.008 198.389 105.83C198.261 104.383 198.092 103.027 198.013 102.815C197.886 102.475 197.574 102.669 195.31 104.493C191.921 107.223 188.818 109.921 186.644 112.027C183.254 115.311 182.241 116.176 181.926 116.055C181.34 115.831 181.614 115.056 182.724 113.792C185.121 111.063 191.366 105.404 195.563 102.158C196.987 101.056 197.561 100.495 197.498 100.267C197.449 100.089 197.253 99.2568 197.062 98.4179C196.871 97.579 196.627 96.8929 196.521 96.8929C196.065 96.8929 189.022 100.842 182.531 104.737C180.702 105.834 178.996 106.732 178.74 106.732C177.987 106.732 178.173 106.062 179.159 105.219C181.012 103.637 187.65 99.6283 193.045 96.8346C194.724 95.965 196.116 95.2419 196.14 95.2273C196.193 95.1946 195.381 91.7031 195.299 91.61C195.205 91.5038 192.785 92.0752 187.432 93.4677C182.591 94.7267 180.059 95.4579 173.097 97.6066C169.265 98.7899 168.328 98.8853 168.328 98.0929C168.328 97.7447 168.526 97.5179 169.077 97.2319C171.151 96.1567 181.796 92.9735 189.543 91.1122L194.719 89.8685L194.706 89.2974C194.699 88.9833 194.542 87.598 194.357 86.2187C193.569 80.3603 193.585 73.8582 194.404 68.0536C195.093 63.1663 195.951 59.4398 198.389 50.7471C201.104 41.0652 202.758 33.3225 204.358 22.8039C206.168 10.9046 206.572 8.80804 207.583 6.04146Z" fill="black"/>
<path fill-rule="evenodd" clip-rule="evenodd" d="M185.215 176.481L177.822 176.56C172.723 176.615 170.198 176.714 169.685 176.88C168.737 177.187 167.591 178.189 167.248 179.009C166.816 180.044 166.922 181.013 168.154 187.226C168.798 190.478 170.62 199.691 172.202 207.7C178.265 238.395 180.715 249.927 182.56 256.449C182.99 257.968 183.316 259.234 183.286 259.261C183.255 259.289 182.549 259.712 181.716 260.202C179.12 261.729 173.521 266.049 169.157 269.892C165.167 273.405 158.395 280.212 157.907 281.198C157.295 282.438 157.146 285.261 157.619 286.682C158.027 287.912 159.63 289.747 160.54 290.026C160.897 290.135 165.629 290.273 171.413 290.341C177.046 290.407 190.339 290.59 200.955 290.747C222.129 291.059 238.827 291.28 275.103 291.728C318.873 292.269 343.476 292.598 349.579 292.725L355.619 292.851L356.656 292.289C358.836 291.107 360.497 288.828 360.979 286.358C361.261 284.91 361.14 283.083 360.706 282.243C360.537 281.917 359.136 280.065 357.592 278.128C356.048 276.191 353.504 272.968 351.939 270.966C346.198 263.623 342.371 259.36 341.514 259.353C340.634 259.345 340.638 259.047 341.531 257.662C343.468 254.662 344.712 251.562 345.451 247.895C346.047 244.939 346.088 238.691 345.532 235.643C344.184 228.257 340.835 221.819 335.262 215.905L333.61 214.151L333.708 212.5C333.797 210.987 334.227 195.692 334.51 183.987L334.626 179.166L334.16 178.489C333.555 177.611 332.205 176.928 330.622 176.7C329.928 176.6 325.532 176.516 320.852 176.514L312.343 176.51H309.012H296.784L284.71 176.514C285.081 177.832 285.224 178.65 285.209 180.246H307.14C320.429 180.25 331.315 180.274 331.332 180.3C331.453 180.489 330.371 215.686 329.85 228.461C329.034 248.497 328.94 250.316 328.441 255.567L328.212 257.978L321.598 257.973C317.96 257.971 299.386 257.84 280.322 257.683C261.258 257.525 238.438 257.395 229.61 257.392C220.782 257.389 207.379 257.329 199.827 257.257L186.095 257.126L185.8 256.115C185.468 254.971 183.987 248.623 182.518 242.039C181.508 237.511 175.591 208.09 172.209 190.776C171.173 185.473 170.28 180.935 170.225 180.692L170.126 180.25L193.024 180.199C199.244 180.186 204.746 180.184 208.723 180.184C212.8 180.183 215.275 180.182 215.281 180.169C214.401 178.568 214.157 177.697 214.404 176.51H201.376H188.503L185.215 176.481ZM257.861 176.51H249.264H241.229C241.229 176.983 241.281 177.396 241.329 177.782C241.45 178.752 241.549 179.547 240.754 180.668L248.896 180.243L258.736 180.668C257.756 179.145 257.465 178.213 257.861 176.51ZM341.824 235.262C340.666 229.773 338.819 225.864 334.887 220.586C334.086 219.51 333.385 218.629 333.331 218.629C333.276 218.629 333.231 218.848 333.231 219.114C333.231 219.897 332.667 235.031 332.341 243.004C332.075 249.485 331.776 253.703 331.338 257.15L331.207 258.183H334.087H336.966L337.949 256.855C339.874 254.251 341.148 251.326 341.933 247.701C342.303 245.994 342.369 245.087 342.366 241.752C342.363 238.225 342.307 237.551 341.824 235.262ZM331.263 261.333C319.636 261.454 311.335 261.449 247.759 261.279C217.051 261.197 190.907 261.1 189.661 261.064C187.162 260.991 184.953 261.316 183.634 261.95C182.808 262.348 177.447 266.506 173.343 269.931C170.289 272.481 160.929 281.724 160.586 282.529C159.97 283.976 160.545 286.514 161.578 286.906C161.857 287.012 165.424 287.097 169.81 287.103C174.066 287.108 191.862 287.287 209.355 287.501C243.433 287.917 261.1 288.126 301.327 288.589C315.354 288.75 333.207 288.971 341.001 289.08L355.171 289.278L355.936 288.538C356.961 287.547 357.478 286.487 357.602 285.119C357.729 283.722 357.593 283.47 354.936 280.168C353.872 278.845 351.395 275.682 349.433 273.139C345.711 268.316 342.112 263.894 340.549 262.224L339.635 261.246L331.263 261.333ZM331.539 270.043C329.632 263.412 329.458 262.501 329.985 261.919C330.179 261.704 330.49 261.528 330.675 261.528C331.124 261.528 331.996 262.229 332.15 262.714C332.256 263.049 332.332 263.07 332.703 262.864C333.343 262.51 338.508 262.421 339.136 262.753C339.852 263.132 340.179 263.878 339.849 264.38C339.445 264.994 338.342 265.256 335.57 265.396C333.345 265.509 333.032 265.566 333.137 265.839C333.204 266.012 333.359 266.53 333.483 266.99C333.706 267.82 333.714 267.826 334.405 267.679C334.789 267.597 336.179 267.53 337.495 267.53C339.571 267.53 339.941 267.58 340.301 267.905C340.852 268.404 340.83 269.119 340.251 269.498C339.606 269.92 337.319 270.376 335.828 270.38C334.69 270.383 334.594 270.416 334.704 270.762C335.646 273.729 335.952 274.415 336.307 274.365C338.259 274.09 340.613 273.951 341.217 274.077C342.065 274.253 342.776 275.034 342.571 275.566C342.288 276.303 340.184 276.877 337.768 276.877C336.51 276.877 336.462 276.896 336.249 277.459C335.987 278.153 335.197 278.425 334.509 278.057C333.834 277.696 333.414 276.562 331.539 270.043ZM185.747 263.171C186.028 262.832 187.189 262.319 188.138 262.114C189.456 261.828 280.011 262.346 291.196 262.702C297.322 262.897 298.715 263.121 299.289 264C299.96 265.03 298.416 265.46 294.04 265.464C292.578 265.465 290.403 265.522 289.208 265.591L287.035 265.716L287.219 266.95L287.404 268.183L292.938 268.265C298.719 268.351 299.554 268.467 299.966 269.236C300.247 269.761 299.916 270.124 298.891 270.415C298.417 270.549 295.862 270.693 292.762 270.76L287.448 270.876L287.513 272.45C287.55 273.316 287.628 274.104 287.689 274.201C287.751 274.303 289.617 274.336 292.051 274.278C297.214 274.156 298.894 274.279 299.279 274.806C300.267 276.156 298.636 276.569 291.431 276.797L287.541 276.921V278.898V280.876L295.369 280.738C299.675 280.662 305.724 280.52 308.811 280.422C311.898 280.324 321.558 280.139 330.277 280.011C348.838 279.738 350.759 279.833 350.759 281.022C350.759 281.261 350.563 281.488 350.252 281.606C348.85 282.139 342.281 282.458 323.975 282.882C316.989 283.044 309.145 283.263 306.546 283.368C287.408 284.147 259.685 284.282 236.927 283.707C216.057 283.181 212.388 283.126 189.124 283L166.824 282.879L166.288 282.343C165.832 281.888 165.78 281.728 165.939 281.281C166.042 280.992 166.377 280.569 166.683 280.341C167.239 279.929 167.296 279.928 181.553 279.955C195.953 279.981 218.701 280.274 233.677 280.624C238.118 280.728 251.434 280.872 263.268 280.944L284.784 281.074V278.989V276.903L270.555 276.841C257.807 276.785 256.251 276.745 255.606 276.453C255.21 276.273 254.829 275.944 254.758 275.722C254.605 275.239 254.911 274.602 255.431 274.324C255.678 274.192 260.766 274.122 270.197 274.122H284.587V272.499L284.587 270.876L275.808 270.924C268.371 270.965 266.964 271.018 266.606 271.269C266.071 271.643 264.911 271.64 264.412 271.263C264.101 271.028 263.159 270.974 259.341 270.974H254.652V271.674C254.652 273.677 253.819 277.369 253.223 278.009C252.389 278.904 250.713 278.268 250.713 277.056C250.713 276.759 250.928 275.601 251.191 274.483C251.454 273.365 251.727 272.162 251.797 271.81L251.926 271.171H243.638H235.351L235.349 271.909C235.348 272.315 235.292 272.979 235.225 273.385L235.103 274.122H241.814H248.524L249.053 274.577C249.724 275.153 249.575 275.768 248.686 276.09C247.889 276.378 242.673 276.659 237.88 276.671L234.204 276.681L234.077 277.435C233.87 278.656 233.294 279.436 232.597 279.436C231.686 279.436 231.216 278.834 231.216 277.667V276.685L229.492 276.786C228.545 276.841 224.889 277.018 221.368 277.178C217.848 277.339 213.151 277.557 210.931 277.662C208.71 277.768 198.625 277.856 188.52 277.858L170.146 277.861L169.644 277.36C169.251 276.967 169.17 276.742 169.274 276.327C169.667 274.764 169.958 274.713 178.426 274.713H185.715L186.195 273.778C186.458 273.264 187.033 272.366 187.472 271.782C187.912 271.199 188.227 270.65 188.173 270.563C188.119 270.476 185.884 270.405 183.206 270.405C180.528 270.405 178.089 270.4 177.786 270.394C177.128 270.381 176.269 269.59 176.269 268.996C176.269 268.763 176.551 268.31 176.896 267.988L177.523 267.403L186.89 267.449L196.258 267.494L197.417 266.38L198.576 265.267H192.346C186.292 265.267 186.104 265.256 185.705 264.857C185.287 264.439 185.305 263.703 185.747 263.171ZM301.97 262.802C302.309 262.409 302.677 262.25 303.497 262.146C304.091 262.07 309.123 261.982 314.68 261.949C323.603 261.897 324.84 261.927 325.257 262.2C325.589 262.417 325.883 262.993 326.246 264.134C326.874 266.112 329.293 275.955 329.293 276.535C329.293 276.763 329.1 277.155 328.864 277.406C328.028 278.296 326.53 277.805 326.211 276.537C326.099 276.091 326.09 276.09 322.181 276.09H318.264V277.048C318.264 278.105 317.714 279.042 317.094 279.042C316.282 279.042 315.542 278.081 315.218 276.609L315.094 276.046L310.426 276.14L305.758 276.235L305.652 277.196C305.458 278.957 304.697 279.626 303.719 278.896C302.999 278.359 302.802 277.495 302.428 273.23C302.248 271.178 301.971 268.312 301.812 266.863C301.441 263.468 301.443 263.416 301.97 262.802ZM313.65 267.383C313.6 267.139 313.504 266.519 313.437 266.005C313.325 265.137 313.279 265.074 312.787 265.115C312.495 265.14 310.541 265.186 308.444 265.218L304.632 265.276L304.766 266.206C304.993 267.781 305.094 268.054 305.405 267.936C305.562 267.875 307.503 267.825 309.717 267.825H313.742L313.65 267.383ZM324.092 266.591C324.028 266.269 323.975 265.795 323.975 265.538V265.07H320.014H316.053L316.185 266.005C316.306 266.864 316.339 267.288 316.567 267.481C316.812 267.688 317.283 267.629 318.334 267.558C319.325 267.491 321.052 267.377 322.172 267.306L324.21 267.176L324.092 266.591ZM211.523 267.579C211.524 267.444 211.742 266.869 212.007 266.3L212.488 265.267H206.801H201.115L200.984 265.862C200.912 266.19 200.643 266.707 200.386 267.012L199.918 267.568L203.012 267.696C208.151 267.909 211.521 267.863 211.523 267.579ZM225.55 265.464L222.622 265.463C221.012 265.462 218.853 265.419 217.824 265.366C215.744 265.26 215.46 265.322 215.46 265.883C215.46 266.096 215.284 266.635 215.068 267.082C214.852 267.528 214.714 267.932 214.761 267.98C214.809 268.027 217.092 268.113 219.836 268.171L224.824 268.275L225.046 267.313C225.168 266.783 225.332 266.15 225.409 265.907L225.55 265.464ZM252.247 267.126C252.369 266.392 252.424 265.721 252.37 265.634C252.317 265.547 246.916 265.472 240.37 265.467L228.467 265.458L228.352 266.002C228.288 266.301 228.11 266.894 227.956 267.319C227.801 267.744 227.725 268.143 227.787 268.204C227.849 268.266 233.328 268.349 239.963 268.388L252.026 268.459L252.247 267.126ZM263.985 268.317L264.202 266.989L264.42 265.661H259.831H255.242V267.042V268.423L259.614 268.37L263.985 268.317ZM284.447 267.284C284.508 266.77 284.619 266.195 284.692 266.005C284.818 265.68 284.325 265.661 275.992 265.66L267.157 265.66L267.223 266.939L267.29 268.219H275.812H284.335L284.447 267.284ZM325.285 272.7C325.22 272.454 325.016 271.611 324.831 270.826C324.646 270.042 324.444 269.409 324.382 269.42C324.321 269.431 323.96 269.513 323.581 269.603C323.202 269.692 321.585 269.922 319.987 270.113C318.098 270.338 317.381 270.383 317.191 270.723C317.056 270.964 317.185 271.352 317.348 272.056L317.577 273.04L321.49 273.094L325.402 273.147L325.285 272.7ZM208.749 270.84L202.225 270.71C198.637 270.639 194.66 270.58 193.386 270.58H191.071L190.944 271.159C190.874 271.477 190.425 272.34 189.947 273.077C189.469 273.814 189.077 274.484 189.074 274.565C189.072 274.646 193.037 274.713 197.886 274.713H206.702L207.222 273.581C207.509 272.959 207.969 272.088 208.246 271.645L208.749 270.84ZM314.522 272.975C314.522 272.884 314.426 272.331 314.308 271.745L314.094 270.679H309.728H305.363L305.422 271.466C305.454 271.899 305.522 272.452 305.574 272.696L305.667 273.139H310.095C312.53 273.139 314.522 273.065 314.522 272.975ZM232.231 272.696C232.409 271.911 232.541 271.259 232.525 271.246C232.509 271.233 227.843 271.165 222.156 271.095L211.817 270.967L210.966 272.761C210.499 273.748 210.144 274.574 210.179 274.597C210.293 274.672 230.713 274.299 231.316 274.21C231.874 274.128 231.926 274.041 232.231 272.696Z" fill="black"/>
<path fill-rule="evenodd" clip-rule="evenodd" d="M30.3579 134.007C31.8763 134.776 34.2356 137.012 35.964 139.319C37.8507 141.838 39.3729 144.834 40.3926 148.037C40.632 148.789 40.8521 149.405 40.8819 149.406C40.9118 149.406 40.9742 149.228 41.0207 149.01C41.1418 148.443 41.7174 146.739 42.1429 145.69C43.0465 143.462 44.1486 141.831 45.2667 141.067C47.1065 139.811 48.7519 139.803 50.0055 141.043C50.9992 142.026 51.3654 143.254 51.367 145.609C51.3679 146.911 51.2872 147.753 51.0502 148.917C50.9816 149.254 50.9146 149.585 50.9013 149.652C50.8881 149.72 50.833 149.94 50.779 150.142C50.725 150.344 50.667 150.581 50.6502 150.668C50.5841 151.013 50.0117 152.68 49.6671 153.532C49.2071 154.668 48.3654 156.291 47.8247 157.084C47.5954 157.421 47.1185 158.001 46.765 158.373C45.6856 159.509 44.6344 160.202 43.319 160.645L42.5568 160.902L42.8295 161.003C43.2436 161.155 44.525 161.204 45.2351 161.094C45.8594 160.997 47.1086 160.626 47.7327 160.352C50.5606 159.111 50.9747 159.016 51.7768 159.424C52.2642 159.672 53.0749 160.279 53.2455 160.524C53.3487 160.672 53.3657 160.543 53.3991 159.358C53.4539 157.407 53.7251 156.599 54.6587 155.604C55.3407 154.877 56.1286 154.362 57.887 153.493C60.7201 152.092 61.2863 151.955 62.2757 152.43C62.6415 152.606 62.9372 152.838 63.3088 153.241C64.2814 154.298 64.6701 155.361 64.6701 156.966C64.6701 159.496 63.7157 161.631 60.7561 165.723C60.2281 166.453 59.796 167.085 59.796 167.128C59.796 167.17 60.0793 167.037 60.4256 166.831C64.0657 164.663 66.9884 164.041 69.3122 164.937C71.3765 165.733 72.7531 167.387 73.5202 169.991C73.9928 171.595 74.0156 172.854 73.5876 173.701C73.1667 174.534 72.0584 175.373 70.819 175.797C70.453 175.922 70.1623 176.062 70.1729 176.109C70.1836 176.155 70.2994 176.369 70.4302 176.584C70.8923 177.343 71.0373 177.928 71.0424 179.057C71.0463 179.909 71.0155 180.18 70.8568 180.688C70.2982 182.476 69.4044 183.448 67.8789 183.927C67.1262 184.163 64.1943 184.142 62.4768 183.888C58.7143 183.332 55.824 182.018 53.9934 180.03C52.8511 178.79 52.6457 178.138 53.1551 177.372C53.4835 176.878 53.7861 176.808 54.1753 177.137L54.4262 177.35L54.9788 176.792C55.6216 176.142 56.1545 175.841 57.3996 175.423C59.7209 174.644 62.4255 174.331 64.5077 174.6C64.6194 174.615 65.0032 174.654 65.3606 174.686C65.7181 174.719 66.303 174.774 66.6604 174.808C67.6703 174.905 69.5152 174.844 70.0525 174.696C71.6128 174.265 72.7204 173.146 72.7555 171.962C72.7848 170.978 72.233 169.487 71.4608 168.462C70.5887 167.305 69.3131 166.428 68.2038 166.223C67.064 166.012 65.4485 166.255 63.5561 166.922C61.6158 167.605 58.7031 169.027 58.8792 169.205C59.1974 169.527 62.3008 170.458 63.8172 170.686C64.0406 170.72 64.3147 170.761 64.4264 170.778C64.5381 170.795 64.9402 170.832 65.32 170.859C65.6998 170.887 66.0745 170.943 66.1527 170.984C66.3135 171.068 66.348 171.535 66.2122 171.79C66.0528 172.09 65.3198 172.161 64.1827 171.989C62.7012 171.764 61.9513 171.59 60.9944 171.246C60.3064 170.999 59.0495 170.365 58.4244 169.949C58.1838 169.79 57.9817 169.669 57.9753 169.682C57.7454 170.138 55.5278 173.327 53.2169 176.525C50.0684 180.883 48.2266 182.947 47.2766 183.183C46.7033 183.325 47.0589 182.681 48.8342 180.364C52.4781 175.609 55.8156 170.908 55.8156 170.531C55.8156 170.321 55.0949 168.929 54.9863 168.929C54.85 168.929 52.8086 169.18 52.5795 169.225C52.409 169.258 52.4641 169.333 53.1213 169.955C53.9043 170.696 54.2721 171.276 54.2721 171.771C54.2721 172.957 51.5574 175.847 48.5009 177.916C47.6554 178.488 46.1388 179.303 45.4021 179.582C44.5731 179.895 43.4 180.105 41.965 180.197C39.8526 180.331 39.5857 180.365 39.5315 180.507C39.4881 180.621 39.1637 183.203 39.1628 183.442C39.1626 183.505 39.3243 183.472 39.6303 183.347C40.6702 182.922 41.0503 182.863 42.7774 182.859C44.372 182.856 45.0953 182.903 45.8237 183.059C47.4283 183.402 47.901 183.518 48.5147 183.721C51.0328 184.555 52.635 185.845 53.4929 187.729C53.7113 188.208 54.0857 189.296 54.2386 189.896C54.2524 189.95 54.4026 190.017 54.5724 190.046C55.3282 190.174 56.539 190.73 57.387 191.339C58.0255 191.797 58.8922 192.682 59.3178 193.311C59.9398 194.23 60.9485 196.45 61.3863 197.865C61.4662 198.123 61.5654 198.334 61.6067 198.334C61.7899 198.334 63.6911 196.7 64.467 195.875C65.7893 194.47 66.3654 193.109 66.4001 191.31C66.4202 190.271 66.278 189.784 65.7938 189.231C65.4188 188.802 65.1768 188.657 64.7073 188.579C64.0328 188.466 63.039 189.161 62.6074 190.048C62.058 191.176 62.1543 192.313 62.9632 194.25C63.3979 195.291 63.5834 195.86 63.5114 195.933C63.4852 195.959 63.3878 195.956 63.2948 195.927C62.3593 195.628 61.2515 193.252 61.1231 191.269C61.0417 190.01 61.3504 189.151 62.1757 188.339C62.8633 187.663 63.684 187.278 64.5227 187.238C65.0566 187.213 65.2121 187.239 65.5965 187.416C66.8381 187.987 67.5151 189.247 67.512 190.98C67.5104 191.814 67.3891 192.526 67.1154 193.308C67.0215 193.576 66.9447 193.809 66.9447 193.826C66.9447 193.842 67.3743 193.446 67.8992 192.945C69.9576 190.979 70.8323 190.517 72.083 190.731C74.5097 191.148 75.9734 192.272 75.9734 193.72C75.9734 194.308 75.6583 194.962 75.1652 195.399C74.4223 196.058 73.8398 196.229 72.3874 196.216C71.3666 196.208 70.8677 196.146 68.7725 195.772C67.0608 195.466 66.9047 195.457 66.7281 195.656C66.4659 195.951 64.7372 197.464 63.9152 198.118L63.1197 198.751L63.3796 199.217C64.0511 200.419 65.1528 201.702 66.0976 202.383C66.7191 202.831 67.8014 203.353 68.4882 203.536C68.8008 203.619 69.3309 203.678 69.7879 203.68C70.4942 203.684 70.593 203.665 70.9537 203.452C71.2452 203.279 71.3889 203.125 71.5055 202.86C71.8147 202.157 71.495 201.669 69.7471 200.174C68.767 199.335 68.3404 198.835 68.4512 198.655C68.4858 198.599 68.6465 198.582 68.8772 198.61C70.0224 198.751 71.885 200.282 72.4889 201.579C73.2245 203.159 72.1846 204.73 70.3246 204.851C69.0678 204.932 67.2478 204.356 65.8281 203.429C65.1181 202.966 63.6463 201.435 62.9323 200.417C62.5856 199.923 62.2747 199.509 62.2415 199.496C62.2082 199.484 61.946 199.652 61.6588 199.869C60.3544 200.854 58.0279 202.36 56.9831 202.896C56.0948 203.351 56.0925 203.295 57.0264 203.928C60.3251 206.165 61.7487 208.371 61.0969 210.236C61.0081 210.49 60.9441 210.705 60.9547 210.714C60.9854 210.74 61.8937 210.998 62.558 211.171C63.16 211.327 64.477 211.752 64.792 211.892C64.8813 211.931 65.1921 212.066 65.4825 212.191C67.0536 212.868 67.9511 213.637 68.2869 214.594C68.9337 216.438 68.9247 222.155 68.2707 224.881C67.9966 226.024 67.5605 226.954 67.1077 227.364C66.7545 227.683 65.4357 228.358 64.9898 228.448C64.8587 228.474 64.7512 228.537 64.751 228.587C64.7506 228.742 64.5914 231.264 64.5519 231.742C64.5315 231.989 64.4925 232.504 64.4652 232.886C64.4131 233.613 64.2038 235.959 64.1407 236.521C63.9511 238.212 63.7144 240.171 63.6125 240.891C63.5069 241.638 63.0485 244.692 62.9995 244.975C62.9801 245.087 62.9277 245.4 62.883 245.669C62.8383 245.939 62.7835 246.26 62.7611 246.384C62.7388 246.507 62.7061 246.691 62.6886 246.792C62.1459 249.919 61.0293 254.094 60.1099 256.432C59.9372 256.871 59.796 257.243 59.796 257.259C59.796 257.274 62.1264 257.311 64.9748 257.341C69.94 257.392 72.3518 257.432 75.3525 257.513C76.5253 257.544 79.3709 257.576 79.5529 257.559C79.5844 257.556 79.3943 257.14 79.1305 256.635C77.8933 254.265 76.9554 251.549 75.8098 247.017C74.1259 240.356 72.7656 232.04 72.3025 225.575C72.1687 223.709 72.1217 218.897 72.223 217.448C72.3277 215.949 72.4608 214.32 72.5065 213.976C73.052 209.881 73.8722 207.247 74.8898 206.323C75.5765 205.699 77.115 204.975 79.0941 204.344C80.3958 203.929 83.9272 203.243 86.0552 202.992C86.4461 202.946 87.0859 202.87 87.4768 202.823C92.7903 202.185 102.582 202.089 107.806 202.625C108.727 202.72 110.788 203.003 111.421 203.122C111.51 203.139 111.93 203.209 112.355 203.278C112.779 203.347 113.282 203.439 113.472 203.483C113.662 203.526 113.973 203.598 114.162 203.641C116.201 204.107 117.626 204.534 118.935 205.071C121.145 205.979 122.526 206.977 123.005 208.014C123.232 208.505 123.58 210.121 123.684 211.161C123.713 211.455 123.763 211.737 123.795 211.789C123.834 211.853 124.29 211.888 125.221 211.899C125.974 211.908 126.741 211.949 126.925 211.989C127.11 212.029 127.444 212.1 127.668 212.148C128.356 212.293 129.501 212.712 130.267 213.098C132.307 214.126 133.896 215.641 134.998 217.609C137.1 221.364 137.813 226.018 137.082 231.211C136.844 232.9 136.266 235.235 135.828 236.276C135.79 236.366 135.661 236.696 135.541 237.011C134.161 240.636 130.791 244.44 127.484 246.108C126.429 246.64 125.751 246.884 124.581 247.153C124.056 247.273 123.58 247.302 122.103 247.302C121.098 247.303 120.035 247.272 119.742 247.234L119.208 247.164L119.023 247.846C118.806 248.646 118.162 250.667 117.699 252C116.721 254.819 115.887 256.687 115.338 257.288C115.246 257.389 115.186 257.487 115.205 257.506C115.235 257.537 115.765 257.562 118.854 257.678C119.367 257.698 120.446 257.751 121.25 257.797C123.158 257.906 126.637 258.097 128.901 258.216C129.892 258.269 130.893 258.286 131.125 258.255C131.494 258.206 131.572 258.222 131.74 258.381C132.012 258.637 131.985 258.936 131.656 259.317L131.38 259.637L130.052 259.621C129.321 259.612 128.139 259.566 127.424 259.518C122.818 259.211 119.703 259.043 116.586 258.935L114.019 258.846L112.923 259.253C110.309 260.221 108.215 260.782 105.694 261.188C105.515 261.217 105.216 261.257 103.866 261.433C103.687 261.457 103.175 261.501 102.729 261.531C101.715 261.6 101.976 261.689 103.257 261.709C104.165 261.724 109.224 262.003 110.04 262.084C110.263 262.106 110.83 262.144 111.299 262.17C112.461 262.233 113.18 262.343 113.26 262.471C113.38 262.662 113.333 262.992 113.159 263.18C112.824 263.541 112.594 263.56 110.527 263.391C109.807 263.332 107.056 263.196 104.881 263.11C103.086 263.04 102.208 263.014 97.8951 262.901C95.8825 262.848 95.2937 262.768 94.8691 262.489C94.5196 262.26 94.4879 262.118 94.7473 261.943C94.9201 261.827 94.8967 261.818 94.3208 261.771C91.2992 261.528 88.9669 261.261 88.1876 261.07C88.0089 261.026 87.4788 260.915 87.0097 260.824C84.8782 260.409 82.144 259.605 81.1575 259.103C80.8938 258.969 80.3696 258.95 74.8212 258.87C71.4944 258.822 67.6393 258.763 66.2542 258.74C64.0629 258.702 61.4862 258.685 59.7098 258.695L59.1768 258.697L58.7822 259.494C58.0311 261.009 57.1421 261.657 54.6783 262.483C53.7332 262.8 52.0142 263.281 51.4135 263.397C51.3103 263.417 50.8602 263.504 50.4135 263.59C49.4426 263.777 48.248 263.987 47.8546 264.04C46.6038 264.207 46.1048 264.264 44.9301 264.374C42.7011 264.581 40.9483 264.658 38.4253 264.659C34.8951 264.661 32.6173 264.495 29.9423 264.041C29.0952 263.897 27.3619 263.446 26.4557 263.134C24.3833 262.421 23.3008 261.748 22.879 260.911C22.2227 259.609 20.5564 252.048 19.8258 247.058C19.7732 246.698 19.7159 246.331 19.6985 246.241C19.6652 246.069 19.4312 244.319 19.3763 243.831C19.3586 243.674 19.3203 243.38 19.2913 243.178C19.205 242.577 19.1993 242.531 19.0622 241.34C18.9898 240.711 18.9127 240.086 18.8908 239.951C18.8386 239.629 18.5599 236.602 18.402 234.642C18.2354 232.572 18.2205 232.361 18.1544 231.15C18.1007 230.166 18.0883 230.109 17.9274 230.108C17.5384 230.106 16.1293 229.682 15.8218 229.473C15.6252 229.34 15.4185 229.099 15.3064 228.873C15.0498 228.355 14.6746 226.838 14.5109 225.657C14.4361 225.118 14.3628 224.601 14.3478 224.508C14.3329 224.415 14.2958 224.084 14.2653 223.773C14.2349 223.461 14.195 223.078 14.1767 222.921C14.1453 222.652 14.0379 220.773 13.9433 218.837C13.9202 218.365 13.9316 217.483 13.9685 216.876C14.0257 215.937 14.0663 215.713 14.2429 215.365C14.6517 214.56 15.9422 213.524 17.3537 212.868C20.8388 211.249 26.1694 210.388 36.5113 209.773C37.2201 209.731 37.8144 209.682 37.8321 209.664C37.8499 209.647 37.7931 209.452 37.706 209.231C37.6189 209.011 37.413 208.481 37.2485 208.055C36.6845 206.591 36.1287 205.435 35.3243 204.052C34.4689 202.582 32.7052 200.091 32.5193 200.091C32.4704 200.091 31.9107 200.715 31.2755 201.479C28.2207 205.152 26.9002 206.49 25.1816 207.652C23.6843 208.664 22.1155 209.305 20.8144 209.435C18.9305 209.624 17.6067 209.036 16.9524 207.721C16.5581 206.928 16.4678 206.404 16.5252 205.237C16.5748 204.224 16.7347 203.478 17.0927 202.587C17.2019 202.314 17.2773 202.092 17.2601 202.092C17.2429 202.092 16.8382 202.295 16.3607 202.543C15.8832 202.792 15.1247 203.113 14.6751 203.258C13.9412 203.494 13.7584 203.521 12.883 203.521C11.9821 203.52 11.8699 203.502 11.4028 203.286C10.8487 203.029 10.2503 202.457 9.89846 201.847C9.13648 200.526 9.0974 198.454 9.80837 197.068C10.737 195.259 13.3021 193.602 16.5386 192.721C18.1075 192.294 19.3005 192.058 20.6003 191.916C20.8684 191.887 21.1132 191.848 21.1443 191.829C21.1755 191.811 21.8335 191.773 22.6066 191.746C23.3796 191.719 24.0216 191.689 24.0331 191.679C24.0759 191.645 22.3418 190.512 20.8846 189.623C19.4109 188.723 19.3779 188.708 19.1787 188.837C19.067 188.91 18.0011 189.716 16.8098 190.628C12.4171 193.994 11.0356 194.734 6.54671 196.126C4.60975 196.726 3.06313 196.916 2.23713 196.655C1.00602 196.266 0.234137 194.448 0.584908 192.764C1.09051 190.336 4.87734 187.773 10.0398 186.366C11.3335 186.013 13.7946 185.513 14.2437 185.511C14.3666 185.511 14.4663 185.483 14.4652 185.449C14.4642 185.415 13.9981 185.087 13.4295 184.72C10.4838 182.817 7.21446 179.983 5.75906 178.072C4.87361 176.91 4.25443 175.72 3.99716 174.687C3.76028 173.736 3.71748 172.005 3.91285 171.275C4.02512 170.855 4.59246 170.276 5.00326 170.163C5.72917 169.963 6.61926 170.129 7.75509 170.679C9.23908 171.397 10.4083 172.281 11.827 173.759C13.7136 175.724 15.1952 178.026 17.4192 182.447C18.3437 184.285 19.1779 185.892 19.6326 186.712C19.8984 187.191 19.9741 187.257 20.9883 187.895C21.5791 188.268 22.5716 188.912 23.1939 189.327C23.8162 189.743 24.3395 190.068 24.3569 190.051C24.4073 190 23.9151 188.881 23.5097 188.124C23.036 187.24 22.807 186.901 21.9374 185.796C20.9872 184.589 20.5493 183.889 19.9762 182.662C19.7113 182.095 18.8013 180.232 17.954 178.522C16.4519 175.491 16.4132 175.4 16.3976 174.869C16.3712 173.975 16.6326 173.737 18.2484 173.183C18.827 172.985 19.3118 172.815 19.3256 172.804C19.3393 172.794 19.2388 172.603 19.1024 172.38C18.6785 171.687 18.2223 170.626 18.1192 170.094C17.9465 169.2 18.115 168.428 18.5288 168.218C18.9519 168.003 21.0541 168.131 24.2153 168.565C25.1833 168.698 25.2349 168.706 26.043 168.851C26.7905 168.985 26.8147 168.989 27.4646 169.129C32.0163 170.104 35.1958 171.617 38.1637 174.22C38.4943 174.51 38.7789 174.733 38.7963 174.715C38.8136 174.698 38.8487 174.28 38.8741 173.787C38.9425 172.464 39.0122 171.235 39.0474 170.726C39.0646 170.479 39.1027 169.777 39.1323 169.166L39.186 168.055L38.1791 167.999C37.1858 167.944 36.6775 167.89 35.0398 167.661C32.9846 167.374 30.1936 166.608 28.4395 165.848C24.9997 164.357 21.8223 161.639 20.3642 158.938C19.9097 158.097 19.545 157.173 19.4128 156.53C19.3198 156.077 19.3248 156.006 19.4674 155.74C19.5687 155.55 19.754 155.382 19.9905 155.265C20.316 155.104 20.4828 155.084 21.4939 155.084C22.5585 155.084 24.5528 155.166 25.4744 155.248C26.9342 155.378 29.6127 155.765 30.3485 155.953C30.5272 155.998 30.8928 156.092 31.1608 156.161C34.249 156.954 36.8731 158.373 39.2118 160.512C39.37 160.657 39.5135 160.762 39.5306 160.744C39.5727 160.702 39.7308 157.453 39.7309 156.627L39.7311 155.965L38.7537 155.532C38.2161 155.294 37.3478 154.862 36.8244 154.572C33.4192 152.69 30.5754 149.734 29.0265 146.465C28.6979 145.772 28.085 144.031 28.0061 143.567C27.9832 143.432 27.9438 143.211 27.9187 143.076C27.8935 142.942 27.8505 142.703 27.8232 142.545C27.717 141.935 27.692 139.329 27.785 138.557C27.9178 137.454 28.1693 136.123 28.3941 135.333C28.4989 134.964 28.6094 134.545 28.6395 134.402C28.7975 133.648 29.3839 133.514 30.3579 134.007ZM29.5927 136.664C29.2072 138.578 29.0988 140.493 29.2922 141.974C29.8561 146.291 33.3327 150.767 37.9845 153.165C38.9581 153.667 39.6332 153.943 39.7062 153.87C39.7766 153.799 39.1806 150.673 38.7462 148.835C38.6559 148.453 38.3977 147.645 38.1724 147.038C36.8825 143.567 34.7845 140.272 32.2257 137.699C31.214 136.682 29.9173 135.628 29.8191 135.744C29.7896 135.778 29.6877 136.193 29.5927 136.664ZM46.7579 142.019C45.8332 142.475 44.7458 143.746 43.9675 145.282C43.2775 146.644 42.5665 148.665 42.2005 150.305C42.1654 150.463 42.1325 150.61 42.1275 150.632C42.1225 150.654 42.0909 150.802 42.0573 150.959C42.0238 151.116 41.9437 151.467 41.8793 151.74C41.7715 152.195 41.4569 154.097 41.2787 155.37C41.2378 155.662 41.1797 156.213 41.1497 156.595C41.1196 156.976 41.0823 157.355 41.0666 157.437C40.9856 157.86 40.9372 159.65 41.0087 159.576C41.0522 159.531 41.2445 159.017 41.436 158.433C41.8027 157.315 43.7434 152.079 44.0257 151.446C44.3769 150.659 44.8927 150.142 45.3264 150.142C45.5339 150.142 45.8237 150.513 45.8237 150.78C45.8237 150.894 45.4663 151.707 45.0294 152.586C44.5925 153.466 44.1736 154.332 44.0985 154.512C43.5835 155.744 42.3598 159.347 42.432 159.419C42.5 159.488 43.9341 158.723 44.5168 158.308C46.4903 156.901 47.892 154.708 49.035 151.238C50.0959 148.017 50.3213 145.327 49.6881 143.445C49.1588 141.872 48.1021 141.358 46.7579 142.019ZM33.7616 143.268C34.1262 143.492 34.7221 144.192 35.1499 144.9C36.2676 146.749 37.5378 149.187 37.5374 149.481C37.5373 149.598 37.4647 149.812 37.3762 149.958C37.2516 150.164 37.1596 150.224 36.9691 150.224C36.5845 150.224 36.2344 149.809 35.6256 148.631C35.3238 148.047 34.766 147.073 34.3862 146.466C33.2164 144.598 32.8694 143.787 33.0267 143.289C33.0955 143.071 33.4244 143.061 33.7616 143.268ZM60.0871 154.035C58.9402 154.504 57.4285 155.264 56.7025 155.736C54.9912 156.849 54.5224 157.806 54.6225 159.981C54.7311 162.34 55.4334 164.807 56.9355 168.106L57.1744 168.63L57.5576 168.106C58.2529 167.154 60.8065 163.272 61.4761 162.149C62.3175 160.738 62.8999 159.564 63.1399 158.795C63.2999 158.283 63.3297 158.014 63.329 157.085C63.3283 156.025 63.3187 155.962 63.0789 155.451C62.8074 154.873 62.3198 154.261 61.7953 153.84C61.3928 153.517 61.3379 153.523 60.0871 154.035ZM21.4173 157.562C22.4612 159.48 24.5956 161.646 26.8055 163.028C28.4646 164.065 30.6637 165.076 32.42 165.609C33.0646 165.804 34.5827 166.219 34.857 166.274C34.924 166.288 35.2597 166.357 35.6028 166.429C35.946 166.501 36.3664 166.578 36.537 166.602C36.7077 166.626 36.9663 166.664 37.1119 166.688C37.4813 166.748 37.8005 166.783 38.5662 166.847L39.2291 166.902L39.284 166.384C39.3142 166.099 39.3266 165.742 39.3116 165.59C39.2845 165.317 39.2758 165.312 38.3907 165.01C37.3635 164.66 36.7534 164.367 36.5256 164.113C36.3894 163.962 36.3835 163.925 36.485 163.856C36.6316 163.758 37.6581 163.837 38.2659 163.995C38.51 164.058 38.8664 164.131 39.0579 164.157L39.4061 164.205L39.4053 163.402L39.4045 162.598L38.4508 161.854C34.8879 159.071 32.5665 158.011 28.6426 157.373C27.5232 157.192 21.4461 156.879 21.1857 156.99C21.1502 157.005 21.2544 157.262 21.4173 157.562ZM59.5296 157.266C59.6815 157.458 59.7296 158.01 59.7243 159.503C59.719 161.033 59.6203 162.415 59.4342 163.568C59.3125 164.322 58.8918 165.49 58.6688 165.693C58.5337 165.816 58.5096 165.817 58.414 165.701C58.3303 165.6 58.3208 165.205 58.368 163.8C58.4007 162.825 58.4416 161.843 58.4589 161.618C58.638 159.297 58.6969 158.758 58.8307 158.228C59.036 157.415 59.3288 157.012 59.5296 157.266ZM49.8849 160.874C49.5054 161.026 48.5992 161.392 47.8712 161.686C45.953 162.463 45.4064 162.584 44.0426 162.538C43.0651 162.504 42.8568 162.47 42.2087 162.24C41.0213 161.817 41.1511 161.762 41.0471 162.734C40.9975 163.199 40.9357 163.803 40.91 164.077L40.8631 164.575L41.6877 165.37C42.7163 166.363 43.3381 166.83 44.1178 167.197C45.5937 167.892 46.965 168.074 50.1697 168.004C52.2939 167.958 54.5632 167.77 54.7027 167.63C54.7485 167.584 54.6506 167.163 54.4506 166.547C54.2707 165.993 53.9391 164.95 53.7138 164.229C53.1743 162.506 52.6606 161.723 51.5101 160.872C51.0376 160.522 50.7611 160.523 49.8849 160.874ZM33.8822 161.974C35.48 162.436 36.3757 163.178 35.8137 163.574C35.5302 163.774 34.9598 163.725 34.0279 163.421C32.9905 163.083 32.4429 162.813 32.1049 162.473C31.4079 161.772 32.3097 161.519 33.8822 161.974ZM45.6612 163.596C45.9314 163.627 47.0085 163.818 48.342 164.07C49.7732 164.341 50.2832 164.612 50.289 165.106C50.2945 165.574 49.8209 165.677 48.6959 165.453C46.3098 164.977 44.6736 164.415 44.3855 163.973C44.2559 163.774 44.2567 163.757 44.4018 163.65C44.5485 163.543 45.0147 163.523 45.6612 163.596ZM40.5913 167.111C40.5641 167.37 40.5054 168.132 40.4609 168.806C40.4163 169.48 40.3567 170.316 40.3282 170.663L40.2767 171.294L40.915 170.677C41.6512 169.965 42.6139 169.3 43.4213 168.946L43.9839 168.7L43.2182 168.314C42.3516 167.876 41.9286 167.602 41.2472 167.036C40.9863 166.819 40.7432 166.642 40.7068 166.642C40.6704 166.642 40.6184 166.853 40.5913 167.111ZM45.9122 169.75C43.8602 170.008 42.3012 171.138 40.7304 173.503C40.1139 174.432 40.0777 174.532 39.9788 175.588C39.9284 176.126 39.8499 176.855 39.8041 177.208C39.7584 177.561 39.741 177.869 39.7654 177.894C39.7897 177.918 40.2215 177.537 40.7249 177.047C42.6683 175.155 44.7678 173.774 45.7597 173.736C46.1916 173.72 46.3111 173.78 46.3111 174.013C46.3111 174.251 45.8666 174.664 43.5897 176.542C41.3651 178.377 40.6437 179.017 40.7157 179.092C40.7923 179.172 42.1811 178.989 43.1836 178.766C45.0174 178.359 46.8546 177.417 49.0233 175.77C50.9788 174.286 52.9723 172.255 52.9723 171.747C52.9723 171.444 52.2198 170.732 51.5629 170.414C50.2545 169.78 47.8804 169.501 45.9122 169.75ZM19.5399 169.889C19.6253 170.245 20.0491 171.122 20.458 171.788C22.2598 174.722 24.4638 176.456 27.6677 177.459C28.9674 177.866 30.3097 178.186 31.4858 178.368C31.9326 178.437 32.3895 178.51 32.5012 178.531C33.0283 178.629 35.3787 178.742 35.9943 178.699C37.1164 178.621 38.315 178.372 38.5288 178.171C38.6349 178.072 38.7048 176.444 38.603 176.444C38.552 176.444 38.1726 176.126 37.7599 175.737C34.9636 173.103 31.9226 171.614 27.3022 170.616C25.8239 170.297 23.4859 169.952 21.9813 169.83C21.4005 169.783 20.779 169.732 20.6003 169.718C20.4216 169.703 20.0978 169.685 19.8807 169.678C19.4891 169.664 19.4864 169.666 19.5399 169.889ZM5.21464 171.744C5.03389 171.926 5.00503 172.851 5.15743 173.578C5.3229 174.367 5.87328 175.493 6.53429 176.395C7.88774 178.242 10.4943 180.693 13.4624 182.912C14.6647 183.81 17.2342 185.532 17.2895 185.477C17.356 185.41 15.7126 182.14 14.8442 180.61C12.2117 175.975 8.54411 172.166 6.23079 171.665C5.66532 171.543 5.39384 171.564 5.21464 171.744ZM27.5865 173.227C27.6759 173.245 27.9405 173.298 28.1746 173.346C28.4087 173.394 29.414 173.703 30.4085 174.033C34.063 175.245 35.5271 175.86 35.7491 176.277C35.8938 176.549 35.8446 176.893 35.6321 177.094C35.3536 177.357 35.1157 177.305 33.0047 176.52C32.0352 176.159 30.8399 175.717 30.3485 175.537C27.9378 174.654 26.9988 174.232 26.5339 173.822C26.1707 173.501 26.159 173.296 26.5 173.227C26.7681 173.173 27.314 173.173 27.5865 173.227ZM7.87109 174.24C8.01869 174.33 8.84119 175.112 9.69886 175.978C10.5565 176.843 11.6858 177.967 12.2083 178.475C12.7308 178.984 13.2308 179.548 13.3194 179.728C13.4781 180.05 13.4741 180.283 13.3098 180.283C13.1759 180.283 12.2347 179.487 11.1365 178.445C10.578 177.915 9.5169 176.96 8.77839 176.323C8.03997 175.685 7.37288 175.067 7.29587 174.949C7.11593 174.673 7.11699 174.327 7.29814 174.188C7.49002 174.042 7.55833 174.048 7.87109 174.24ZM18.4476 174.547C18.1009 174.719 18.0065 174.806 18.0262 174.932C18.0583 175.139 19.2647 177.879 20.4001 180.323C21.9231 183.603 23.4313 186.573 24.2146 187.838C24.6319 188.511 25.082 189.296 25.2149 189.581C25.4543 190.096 25.4551 190.103 25.3151 190.398L25.1737 190.696L25.5246 190.982C27.1038 192.272 28.5089 193.572 30.6358 195.714C34.3151 199.419 35.4833 200.911 36.8744 203.682L37.2679 204.466L37.2294 201.778C37.1955 199.417 37.2771 195.844 37.4256 193.188C37.4823 192.174 37.478 192.298 37.4661 192.035L37.4565 191.821L36.0958 191.777C35.3474 191.753 34.6562 191.714 34.5597 191.691C34.4633 191.668 34.2074 191.624 33.991 191.595C31.6922 191.28 27.7826 189.768 25.7487 188.407C24.3536 187.474 23.3792 186.195 23.1736 185.029C22.9417 183.713 23.6433 182.114 24.73 181.482C25.4305 181.075 25.883 180.976 27.0179 180.985C27.8482 180.992 28.2807 181.041 29.0417 181.214C32.5352 182.007 35.4 184.015 37.4147 187.083C37.5844 187.341 37.7546 187.552 37.793 187.552C37.8313 187.552 37.8627 187.377 37.8627 187.163C37.8627 186.665 38.0599 184.301 38.3103 181.797C38.4179 180.721 38.4967 179.831 38.4853 179.82C38.4739 179.808 38.1007 179.875 37.6559 179.968C36.9475 180.116 36.6659 180.131 35.385 180.091C34.5808 180.065 33.6121 180.005 33.2323 179.957C32.5579 179.873 30.3057 179.511 29.9017 179.423C29.79 179.399 29.5341 179.345 29.333 179.304C27.6768 178.966 26.0841 178.435 24.8834 177.821C24.3788 177.562 24.0759 177.45 24.0248 177.501C23.9737 177.552 24.0107 177.975 24.1298 178.7C24.231 179.316 24.3158 180.04 24.3183 180.309C24.3226 180.759 24.3019 180.818 24.0647 181.031C23.753 181.311 23.6445 181.319 23.4279 181.079C23.2295 180.859 23.1404 180.612 22.5504 178.649C22.3007 177.818 21.9428 176.825 21.7551 176.444C21.1747 175.263 20.0447 174.316 19.2237 174.322C19.0338 174.324 18.7053 174.419 18.4476 174.547ZM59.9991 176.225C58.9226 176.406 58.0034 176.657 56.9528 177.059C55.8224 177.492 54.7556 177.931 54.6173 178.021C54.3703 178.182 54.6285 178.823 55.225 179.53C55.7216 180.118 57.0433 180.982 58.0524 181.376C58.4976 181.55 58.935 181.724 59.0243 181.761C59.4538 181.941 60.99 182.262 62.2737 182.44C63.6656 182.633 64.4495 182.689 65.7668 182.69C67.1506 182.691 67.9149 182.544 68.5097 182.165C69.3853 181.607 70.0117 179.908 69.7795 178.721C69.6696 178.159 69.274 177.452 68.7923 176.955C68.4402 176.592 68.1999 176.483 67.5946 176.41C64.5129 176.036 63.3922 175.966 61.7863 176.048C61.2055 176.078 60.4013 176.157 59.9991 176.225ZM61.3395 179.272C61.6299 179.336 61.9407 179.402 62.03 179.419C62.2272 179.456 64.7434 180.01 65.1982 180.116C65.3769 180.158 65.6523 180.213 65.8102 180.238C66.2502 180.308 66.4573 180.491 66.4573 180.811C66.4573 181.017 66.395 181.138 66.2073 181.296C66.0699 181.413 65.8912 181.508 65.8102 181.508C65.6869 181.508 64.8475 181.36 64.2233 181.229C64.134 181.21 63.5125 181.082 62.8424 180.946C61.0664 180.583 60.372 180.396 59.6269 180.08C58.6101 179.649 58.4393 179.394 59.0527 179.223C59.4683 179.107 60.7108 179.133 61.3395 179.272ZM25.715 182.6C25.1276 182.875 24.6547 183.445 24.5357 184.021C24.3443 184.948 24.5463 185.522 25.3499 186.337C26.5017 187.504 28.7842 188.699 31.4858 189.547C32.9581 190.009 33.1714 190.071 33.4709 190.124C33.6226 190.151 33.7721 190.189 33.8031 190.208C33.8343 190.228 33.9835 190.261 34.1349 190.283C34.2863 190.304 34.6155 190.358 34.8664 190.401C35.1174 190.445 35.6474 190.506 36.0443 190.537C36.4412 190.567 36.7935 190.609 36.8269 190.629C36.8604 190.649 36.8861 190.636 36.8839 190.6C36.8748 190.449 33.6279 188.426 31.2421 187.083C29.3428 186.015 29.0893 185.816 29.0893 185.39C29.0893 184.985 29.8384 184.897 30.5292 185.22C32.0247 185.921 35.3537 188.048 36.8354 189.25C37.1862 189.535 37.4899 189.751 37.5101 189.731C37.5638 189.677 36.3319 187.864 35.7222 187.1C34.0356 184.987 31.8291 183.466 29.4143 182.754C28.5091 182.487 28.0939 182.429 27.0179 182.417C26.2389 182.409 26.0718 182.433 25.715 182.6ZM41.1121 184.455C40.3821 184.573 39.0889 185.015 39.0079 185.174C38.9711 185.247 38.9173 185.508 38.8883 185.755C38.8593 186.002 38.817 186.352 38.7943 186.531C38.5032 188.833 38.4427 188.573 39.3871 189.077C41.5362 190.223 44.2869 191.173 47.0225 191.715C48.3303 191.975 49.025 192.045 50.283 192.045C51.6523 192.045 52.0672 191.947 52.4688 191.531C53.147 190.827 53.1308 189.341 52.431 188.082C51.8207 186.984 50.2602 185.802 48.6263 185.2C46.5989 184.453 43.2018 184.116 41.1121 184.455ZM43.2648 185.959C43.3095 185.974 43.8395 186.122 44.4427 186.289C47.6132 187.163 48.7914 187.603 49.2286 188.074C49.3984 188.257 49.4122 188.314 49.3312 188.492C49.2164 188.746 48.8852 188.883 48.5512 188.815C48.4138 188.788 47.753 188.588 47.0828 188.373C46.4126 188.157 45.3525 187.826 44.727 187.637C43.3632 187.226 42.5352 186.889 42.091 186.566C41.5189 186.149 41.7162 185.915 42.6299 185.925C42.9344 185.929 43.2201 185.944 43.2648 185.959ZM14.3859 186.831C14.1401 186.882 13.8842 186.93 13.8172 186.938C13.4171 186.985 10.531 187.675 9.67425 187.93C7.59188 188.548 5.68856 189.408 4.59287 190.225C2.71959 191.623 1.64379 193.167 1.76621 194.284C1.84241 194.98 2.30212 195.458 3.01951 195.588C4.05013 195.776 7.4472 194.751 10.0398 193.472C11.8235 192.592 12.9985 191.785 16.2136 189.234C16.9285 188.667 17.6374 188.106 17.7891 187.987C18.0528 187.781 18.0582 187.767 17.911 187.655C17.8075 187.577 17.6375 187.552 17.3915 187.58C16.8568 187.641 16.394 187.836 12.0727 189.821C11.6137 190.032 11.0942 190.21 10.8745 190.231L10.4866 190.269V189.985C10.4866 189.2 11.8497 188.203 14.0609 187.369C14.4854 187.209 15.0063 187.015 15.2185 186.937C15.4307 186.859 15.6044 186.767 15.6044 186.732C15.6044 186.656 14.9859 186.706 14.3859 186.831ZM38.4849 190.595C38.3539 191.357 38.3636 200.765 38.4984 203.685C38.624 206.403 38.7443 208.54 38.8054 209.137L38.8534 209.607H39.8203C40.5825 209.607 40.7871 209.583 40.7871 209.495C40.7871 209.352 41.6135 207.663 42.1634 206.682L42.5883 205.924L42.5328 205.254C42.3799 203.407 43.2556 199.962 43.769 200.39C43.9141 200.512 43.8996 201.945 43.741 203.154C43.6791 203.625 43.6385 204.066 43.6507 204.133C43.6628 204.2 43.951 203.85 44.291 203.355C46.3027 200.43 48.2623 198.125 49.9493 196.701C50.3484 196.364 50.7161 196.025 50.7666 195.948C50.836 195.842 50.828 195.689 50.7334 195.318C50.6648 195.048 50.5966 194.505 50.5821 194.11L50.5555 193.393L49.794 193.34C48.8386 193.273 48.3511 193.215 47.4622 193.06C47.0748 192.992 46.6482 192.918 46.5142 192.895C46.3801 192.872 46.1243 192.819 45.9455 192.778C45.481 192.67 45.2304 192.679 45.275 192.8C45.354 193.016 45.0151 195.423 44.8165 196.057C44.797 196.119 44.7599 196.268 44.7338 196.388C44.6503 196.773 44.3018 197.109 43.9866 197.109C43.7574 197.109 43.6921 197.069 43.6208 196.885C43.4274 196.383 43.7455 194.45 44.2733 192.919C44.3938 192.57 44.4107 192.437 44.3381 192.413C44.2839 192.395 44.0751 192.339 43.8741 192.289C43.099 192.098 40.818 191.287 39.7512 190.823C39.137 190.556 38.6111 190.336 38.5825 190.334C38.554 190.331 38.5101 190.449 38.4849 190.595ZM54.0597 191.767C53.8725 192.164 53.2386 192.805 52.8227 193.018C52.636 193.114 52.2735 193.241 52.017 193.3L51.5507 193.407L51.5806 194.339C51.597 194.852 51.627 195.3 51.6472 195.334C51.6675 195.369 51.7819 195.327 51.9017 195.242C52.2351 195.006 53.057 194.606 53.413 194.507C53.6878 194.431 53.8171 194.448 54.3472 194.631C56.3648 195.327 58.1816 196.73 58.8644 198.119C59.133 198.666 59.1808 198.848 59.212 199.445C59.2319 199.826 59.2709 200.127 59.2987 200.114C59.3265 200.101 59.6155 199.907 59.9409 199.682L60.5325 199.274L60.4911 198.929C60.4683 198.739 60.3035 198.133 60.125 197.581C59.3046 195.047 58.0267 193.334 56.0593 192.129C55.4528 191.758 54.7733 191.481 54.4587 191.477C54.2384 191.474 54.1772 191.518 54.0597 191.767ZM71.2037 192.012C70.7517 192.202 70.0816 192.678 69.0065 193.573C67.9564 194.447 67.9641 194.397 68.8537 194.572C72.4034 195.27 73.5951 195.221 74.4457 194.346C74.6075 194.179 74.7628 193.927 74.7908 193.786C74.8349 193.565 74.7955 193.48 74.4979 193.155C74.0867 192.707 73.5115 192.363 72.7936 192.137C71.9004 191.857 71.6248 191.835 71.2037 192.012ZM24.6178 194.025C24.1954 194.709 23.6664 195.527 23.4423 195.842C22.5768 197.059 22.6227 196.982 22.7978 196.912C23.7613 196.524 24.6141 196.26 25.4744 196.084C25.6923 196.039 27.4095 195.72 27.9059 195.633L28.469 195.533L27.7841 194.869C27.0356 194.144 25.5009 192.782 25.4301 192.781C25.4057 192.78 25.0402 193.34 24.6178 194.025ZM21.5323 193.19C20.1735 193.38 17.7441 193.855 16.7417 194.126C14.4812 194.738 12.9559 195.524 11.8067 196.668C10.8817 197.588 10.5035 198.59 10.5911 199.886C10.6655 200.987 11.0644 201.727 11.8063 202.14C12.1979 202.358 12.2968 202.377 13.0049 202.37C13.9041 202.361 14.4041 202.211 15.6044 201.591C17.2087 200.762 18.9199 199.301 20.473 197.436C21.5833 196.102 22.73 194.527 22.6494 194.446C22.6155 194.411 20.5236 195.353 17.7472 196.653C16.5995 197.19 15.9702 197.355 15.6423 197.204C15.4592 197.121 15.4338 197.07 15.4798 196.882C15.5645 196.536 15.7336 196.321 16.2362 195.922C17.1555 195.192 19.2364 194.26 21.697 193.476C23.2988 192.966 23.286 192.944 21.5323 193.19ZM53.0805 196.011C52.0227 196.595 49.9762 198.166 50.149 198.261C50.2051 198.291 50.4703 198.362 50.7384 198.417C51.5014 198.575 52.9478 199.084 54.8001 199.848C55.9249 200.312 56.8472 200.621 57.1042 200.621C57.825 200.621 58.3359 199.411 57.9555 198.605C57.5339 197.711 55.8164 196.452 54.2315 195.875C53.6892 195.677 53.6841 195.677 53.0805 196.011ZM27.4646 197.197C24.1981 197.756 22.3551 198.422 20.9302 199.561C19.0197 201.087 17.7165 203.643 17.7165 205.864C17.7165 206.973 17.9145 207.492 18.4788 207.861C19.9515 208.825 22.1561 208.236 24.7433 206.185C25.7116 205.418 27.695 203.354 29.1471 201.602C29.9105 200.681 30.7393 199.688 30.9889 199.396C31.2387 199.104 31.4434 198.845 31.444 198.82C31.4453 198.768 29.8332 196.929 29.722 196.856C29.6813 196.829 29.4949 196.837 29.3077 196.874C29.1206 196.91 28.2912 197.056 27.4646 197.197ZM48.7489 199.804C48.6591 199.853 48.5857 199.923 48.5857 199.961C48.5857 200 48.7438 200.228 48.9372 200.469C49.7446 201.476 50.3129 202.626 50.5191 203.67C50.5917 204.037 50.6567 204.348 50.6635 204.361C50.7266 204.478 56.0172 201.85 55.9731 201.724C55.9416 201.634 54.5393 201.03 53.216 200.537C52.4197 200.24 51.0803 199.853 50.6165 199.785C50.1175 199.711 48.8976 199.724 48.7489 199.804ZM47.8187 201.563C47.732 201.629 47.5065 201.683 47.3175 201.683C46.9849 201.683 46.9605 201.702 46.5437 202.276C45.8925 203.172 44.2802 205.542 44.2802 205.603C44.2802 205.633 44.5635 205.609 44.9098 205.552C45.2561 205.494 45.7953 205.407 46.108 205.36C46.4208 205.313 46.7315 205.258 46.7985 205.238C46.8655 205.218 47.03 205.183 47.1641 205.159C48.032 205.009 48.7981 204.721 49.0388 204.454C49.2479 204.221 49.2862 203.497 49.1169 202.977C48.9221 202.377 48.2754 201.435 48.0638 201.441C48.0157 201.442 47.9054 201.497 47.8187 201.563ZM54.4261 204.245C54.0063 204.441 53.5257 204.646 53.3582 204.701C53.1906 204.755 53.0536 204.848 53.0536 204.907C53.0536 204.966 53.1868 205.211 53.3496 205.452C54.2616 206.801 55.7781 208.215 57.2372 209.075C58.3692 209.742 59.1757 210.068 59.4662 209.976C59.7386 209.889 60.0398 209.457 60.0398 209.154C60.0398 207.938 58.751 206.407 56.1068 204.481C55.6596 204.155 55.2702 203.889 55.2415 203.889C55.2129 203.889 54.8459 204.049 54.4261 204.245ZM93.9959 204.869C92.9012 204.915 91.7132 204.987 91.3557 205.029C90.9983 205.072 90.1941 205.168 89.5686 205.242C88.4909 205.369 86.6381 205.635 86.1973 205.726C86.0856 205.749 85.6652 205.824 85.2631 205.894C84.861 205.963 84.2944 206.076 84.004 206.144C80.9291 206.869 79.2247 207.439 78.8808 207.858C78.7527 208.014 78.8051 208.012 80.2672 207.81C80.6023 207.764 81.1872 207.69 81.567 207.646C82.7765 207.507 82.9824 207.483 83.2729 207.446C83.4293 207.426 84.0324 207.37 84.6133 207.321C85.1941 207.272 85.9435 207.198 86.2786 207.157C86.6137 207.116 87.2534 207.063 87.7002 207.039C88.147 207.015 89.2071 206.95 90.056 206.895C91.808 206.781 99.7778 206.753 101.916 206.853C104.716 206.984 108.353 207.284 111.136 207.613C111.881 207.701 114.524 208.149 114.995 208.268C116.166 208.562 116.856 208.944 117.224 209.502C117.535 209.973 117.535 210.137 117.227 210.604C117.044 210.882 116.839 211.052 116.415 211.276C115.198 211.919 113.751 212.27 110.649 212.673C110.493 212.693 110.237 212.728 110.08 212.751C109.088 212.894 105.871 213.105 103.135 213.206C100.21 213.314 91.5935 213.261 89.9369 213.125C87.8587 212.954 85.4829 212.683 84.532 212.509C83.5721 212.333 83.5417 212.327 82.7042 212.15C81.2514 211.842 78.7427 211.09 78.1388 210.781C77.721 210.567 77.7103 210.585 77.4377 211.996C77.1142 213.67 77.1229 213.616 76.9756 214.834C76.9077 215.396 76.8371 215.965 76.8186 216.1C76.5436 218.109 76.4609 226.705 76.696 228.843C76.7306 229.157 76.8003 229.874 76.851 230.435C77.1262 233.483 77.8227 237.815 78.5126 240.768C78.5232 240.813 78.5592 240.979 78.5926 241.136C78.6493 241.402 78.839 242.204 79.3455 244.321C79.8403 246.389 81.4631 251.658 82.0142 252.985C82.1342 253.274 82.3111 253.597 82.4074 253.703C83.0755 254.44 87.9329 255.988 90.7872 256.375C90.9659 256.399 91.2034 256.432 91.3151 256.448C93.8751 256.818 96.3686 256.936 98.9512 256.81C102.593 256.632 107.141 255.8 110.527 254.693C111.899 254.244 112.374 254.029 112.523 253.788C112.867 253.231 113.778 250.502 114.673 247.344C115.041 246.047 116.061 241.954 116.251 241.013C116.287 240.834 116.41 240.227 116.523 239.666C116.718 238.708 117.166 236.361 117.435 234.887C117.501 234.528 117.628 233.756 117.718 233.172C117.808 232.588 117.952 231.65 118.039 231.089C118.264 229.634 118.42 228.559 118.646 226.923C118.914 224.989 118.912 225.003 119.14 222.962C119.461 220.094 119.527 219.296 119.757 215.51C119.918 212.859 119.93 212.29 119.852 211.078C119.744 209.405 119.65 209.149 118.917 208.536C117.054 206.978 112.092 205.703 105.612 205.119C104.607 205.028 103.597 204.935 103.367 204.912C103.137 204.889 101.931 204.846 100.686 204.817C99.4414 204.788 98.4171 204.761 98.4097 204.756C98.3716 204.729 95.7405 204.797 93.9959 204.869ZM50.4135 205.909C49.4127 206.29 48.7977 206.388 48.675 206.189C48.608 206.08 48.5442 206.087 46.1486 206.464C46.0369 206.482 45.4338 206.573 44.8083 206.667C43.3932 206.879 43.4581 206.858 43.2725 207.176C42.9026 207.811 42.1681 209.333 42.1681 209.463C42.1681 209.596 42.3265 209.607 44.3818 209.607C46.4756 209.607 52.4611 209.797 53.3379 209.891C53.5613 209.915 54.0365 209.953 54.3939 209.976C54.7514 209.999 55.5317 210.075 56.1281 210.145C56.7244 210.214 57.2307 210.253 57.2532 210.23C57.2756 210.208 57.1098 210.095 56.8848 209.981C55.4407 209.245 53.3879 207.211 52.4516 205.587L52.2299 205.203L51.8091 205.371C51.5776 205.463 50.9496 205.706 50.4135 205.909ZM41.6882 213.065C41.7152 213.813 41.8901 214.761 42.0178 214.851C42.0781 214.894 42.3958 215.057 42.7238 215.214C43.5793 215.623 44.7445 215.841 45.7831 215.785C46.6532 215.738 46.665 215.736 47.8952 215.468C48.5108 215.334 48.9928 215.29 49.8854 215.287C50.9341 215.284 51.3251 215.31 52.3022 215.45C52.4473 215.471 52.6667 215.501 52.7896 215.518C52.9125 215.535 53.1409 215.572 53.2973 215.6C54.1012 215.744 55.6957 215.891 56.4654 215.893C57.0305 215.894 58.8243 215.726 59.5117 215.608C59.6011 215.593 60.186 215.522 60.8115 215.45C61.437 215.379 62.0036 215.305 62.0706 215.286C62.1376 215.268 62.4301 215.23 62.7205 215.202C63.9128 215.087 64.7046 214.99 64.7385 214.956C64.7584 214.936 64.7237 214.904 64.6614 214.884C64.4637 214.821 62.4755 214.518 61.3801 214.384C60.1922 214.238 60.033 214.218 58.7806 214.053C58.2892 213.989 57.1194 213.845 56.1811 213.734C53.9882 213.474 53.9043 213.465 52.8911 213.361C52.422 213.312 51.9468 213.258 51.8351 213.24C50.7446 213.062 44.2146 212.58 42.6296 212.559L41.6695 212.547L41.6882 213.065ZM39.2505 212.86C39.2542 212.98 39.3187 213.372 39.3938 213.731L39.5303 214.385L40.0165 214.426C40.7286 214.486 40.8732 214.449 40.7907 214.231C40.7537 214.133 40.6797 213.76 40.6263 213.402C40.5728 213.044 40.5187 212.715 40.5061 212.67C40.4926 212.621 40.2307 212.599 39.8635 212.615C39.2506 212.641 39.2438 212.644 39.2505 212.86ZM36.3192 212.875C35.8948 212.918 35.3647 212.973 35.1413 212.996C34.6078 213.051 34.0368 213.099 32.7269 213.199C32.1336 213.245 31.4655 213.3 31.2421 213.322C31.0187 213.344 30.3241 213.399 29.6986 213.444C29.0731 213.489 28.2506 213.562 27.8708 213.607C27.4911 213.651 26.7965 213.724 26.3274 213.769C23.3313 214.055 20.3386 214.477 19.0162 214.8C17.6058 215.144 17.5461 215.161 17.2942 215.292C16.9517 215.47 17.0474 215.503 17.4753 215.355C17.6742 215.286 18.0803 215.209 18.3777 215.184C18.9206 215.138 20.3076 215.269 20.7628 215.408C20.8968 215.449 21.1344 215.499 21.2908 215.519C21.4472 215.539 21.9877 215.621 22.492 215.701C23.2764 215.825 23.4802 215.831 23.9022 215.743L24.3954 215.641L25.0974 216.048C26.132 216.648 26.5928 216.81 27.2487 216.804C28.3637 216.793 29.0062 216.099 29.0076 214.902L29.0081 214.521L29.4346 214.371C29.7929 214.245 30.1208 214.222 31.4858 214.222H33.1105L34.6539 214.62C35.888 214.939 36.3358 215.019 36.8879 215.023C37.5506 215.027 38.541 214.823 38.6398 214.662C38.6752 214.604 38.2334 213.032 38.1317 212.853C38.0837 212.769 37.2462 212.779 36.3192 212.875ZM123.941 214.038C123.915 214.139 123.892 214.879 123.891 215.682L123.89 217.142L124.56 217.075C125.642 216.967 126.631 217.007 127.265 217.186C129.321 217.764 131.004 219.51 131.644 221.729C132.278 223.93 132.09 226.442 130.949 231.028C130.698 232.036 130.111 234.037 129.984 234.315C129.944 234.405 129.813 234.736 129.693 235.05C128.818 237.356 127.421 239.385 126.099 240.267C124.966 241.024 123.153 241.594 121.598 241.682L120.727 241.732L120.608 242.148C120.42 242.811 120.153 243.993 120.153 244.164C120.153 244.303 120.215 244.321 120.669 244.321C123.351 244.321 126.32 242.753 128.812 240.019C131.79 236.751 133.625 233.458 134.486 229.834C135.009 227.634 134.964 224.712 134.371 222.471C133.535 219.31 132.081 216.862 130.191 215.433C128.837 214.409 127.064 213.904 124.692 213.865C124.029 213.855 123.988 213.864 123.941 214.038ZM64.5477 218.796C63.3888 219.122 60.5312 219.742 59.3086 219.934C59.1523 219.958 58.5491 220.056 57.9683 220.151C56.699 220.359 56.8269 220.341 55.1657 220.552C51.9387 220.964 49.997 221.123 45.052 221.379C43.5248 221.458 32.5369 221.421 31.4451 221.333C31.2441 221.317 30.5861 221.28 29.9829 221.25C28.9546 221.201 27.2748 221.078 26.6466 221.007C26.4934 220.989 26.1121 220.95 25.7993 220.92C22.8596 220.635 19.2365 219.841 17.4301 219.085C16.7594 218.804 16.6666 218.784 16.6182 218.904C16.5257 219.135 16.4724 222.788 16.5365 224.496L16.5971 226.113L16.9935 226.315C18.5188 227.092 23.279 228.05 27.5459 228.44C27.8363 228.466 28.3846 228.521 28.7644 228.562C30.1497 228.71 33.4028 228.958 35.3444 229.062C39.5511 229.289 46.9542 229.156 49.9667 228.801C50.3464 228.756 51.3152 228.643 52.1194 228.55C53.6575 228.373 53.7144 228.365 54.2315 228.278C54.4102 228.247 54.7758 228.187 55.0438 228.144C59.4948 227.427 63.3726 226.299 64.4012 225.422C64.9102 224.989 65.2981 222.956 65.3694 220.348C65.3904 219.584 65.4193 218.876 65.4337 218.775C65.4665 218.546 65.4391 218.546 64.5477 218.796ZM123.723 220.203C123.692 220.237 123.623 220.891 123.571 221.655C123.387 224.326 123.294 225.275 122.909 228.353C122.814 229.116 122.724 229.815 122.709 229.905C122.694 229.994 122.624 230.527 122.554 231.089C122.483 231.65 122.391 232.294 122.348 232.518C122.306 232.743 122.249 233.092 122.223 233.294C122.162 233.758 122.157 233.794 121.901 235.418C121.784 236.159 121.654 236.92 121.611 237.108C121.569 237.297 121.534 237.562 121.534 237.698C121.534 237.973 121.47 237.968 122.48 237.777C122.976 237.682 123.713 237.256 124.201 236.781C124.766 236.232 125.378 235.229 126.238 233.448C127.345 231.152 128.155 229.054 128.393 227.862C128.42 227.728 128.46 227.526 128.482 227.413C128.832 225.607 128.61 223.334 127.956 222.031C127.528 221.177 126.788 220.482 126.002 220.192C125.712 220.085 125.444 220.066 124.709 220.098C124.199 220.121 123.755 220.168 123.723 220.203ZM59.8253 229.624C59.3848 229.717 58.9329 229.81 58.8212 229.83C58.7095 229.851 58.4354 229.903 58.212 229.947C55.954 230.387 51.6989 230.827 47.0016 231.105C44.6436 231.245 32.5541 231.245 29.9829 231.106C25.9413 230.886 25.2564 230.842 23.9008 230.713C22.7999 230.61 22.4764 230.602 22.4288 230.68C22.2429 230.982 22.0816 234.028 22.2145 234.724C22.2317 234.814 22.272 235.211 22.3041 235.607C22.3361 236.003 22.3746 236.426 22.3896 236.546C22.4045 236.667 22.4576 237.207 22.5073 237.746C22.5571 238.285 22.6127 238.781 22.6308 238.849C22.6488 238.916 22.683 239.118 22.7067 239.298C22.7305 239.478 22.8241 240.194 22.9149 240.891C23.1102 242.389 23.7502 246.599 23.9767 247.875C24.0644 248.369 24.1548 248.883 24.1776 249.018C24.2004 249.153 24.3134 249.759 24.4287 250.366C24.544 250.972 24.6548 251.56 24.6749 251.673C25.0974 254.035 26.0148 257.357 26.388 257.876C26.6154 258.193 27.8305 258.732 28.8863 258.985C30.1105 259.279 30.5586 259.377 31.2827 259.512C32.1287 259.67 33.7172 259.881 34.6539 259.96C35.996 260.074 39.5667 260.1 41.3376 260.009C44.0536 259.871 47.7541 259.468 49.2355 259.151C49.3472 259.127 49.8225 259.03 50.2916 258.936C52.2248 258.548 54.2606 257.953 55.2212 257.495C55.6376 257.297 55.697 257.234 55.9073 256.768C56.3098 255.875 56.7664 254.583 57.2338 253.014C57.7763 251.192 58.0233 250.229 58.6568 247.466C58.8077 246.808 58.9189 246.221 59.3919 243.586C59.5297 242.819 59.788 241.047 60.071 238.93C60.2092 237.896 60.5002 235.213 60.5715 234.315C60.6368 233.494 60.7165 229.455 60.6675 229.455C60.6448 229.455 60.2658 229.531 59.8253 229.624ZM67.3915 259.926C68.5978 259.957 70.6998 260.007 72.0625 260.036C73.4252 260.065 75.253 260.107 76.1242 260.129C76.9955 260.151 78.5308 260.187 79.5361 260.21L81.3639 260.25L81.4765 260.468C81.5754 260.659 81.5714 260.718 81.4441 260.956C81.1588 261.489 81.0575 261.515 79.2518 261.521C78.3582 261.523 76.5559 261.5 75.2467 261.469C73.9375 261.438 71.3786 261.387 69.5603 261.356C64.6053 261.271 63.6729 261.183 62.7205 260.715C62.2704 260.494 62.1923 260.237 62.5336 260.1C63.2125 259.827 63.3872 259.821 67.3915 259.926ZM120.405 260.693C120.436 260.724 122.394 260.947 123.322 261.026C123.523 261.043 123.988 261.081 124.355 261.112C125.054 261.169 125.143 261.216 125.231 261.568C125.273 261.738 125.232 261.843 125.04 262.058L124.795 262.332L123.591 262.318C122.568 262.306 120.789 262.15 120.072 262.009C118.655 261.73 117.838 261.398 117.838 261.099C117.838 260.793 118.312 260.658 119.388 260.658C119.928 260.658 120.386 260.674 120.405 260.693ZM74.4183 264.014C75.2002 264.057 75.8861 264.108 75.9427 264.128C75.9992 264.149 76.0814 264.261 76.1254 264.378C76.2173 264.62 76.1384 264.822 75.8148 265.171C75.608 265.394 75.5986 265.395 74.5453 265.395C73.0023 265.393 70.8128 265.245 70.1722 265.099C69.5104 264.948 69.1289 264.67 69.2683 264.441C69.5276 264.015 71.4625 263.855 74.4183 264.014ZM99.5604 264.504C99.8732 264.545 100.294 264.604 100.495 264.635C100.696 264.666 105.338 264.694 110.811 264.698C116.285 264.702 120.809 264.713 120.866 264.723C120.923 264.734 121.01 264.831 121.059 264.94C121.133 265.104 121.117 265.19 120.968 265.432C120.593 266.042 121.24 265.999 111.908 266.034C101.519 266.073 98.7677 265.968 97.7062 265.49C97.136 265.233 96.9081 264.852 97.1778 264.607C97.3132 264.483 97.4924 264.454 98.1674 264.443C98.6209 264.436 99.2477 264.463 99.5604 264.504ZM50.4541 265.009C50.4918 265.046 52.7407 265.194 54.3774 265.268C54.7704 265.286 55.145 265.344 55.21 265.398C55.5104 265.649 55.2471 266.241 54.7241 266.49C54.4251 266.633 53.7143 266.615 49.926 266.37C47.9012 266.239 47.1234 266.022 47.0566 265.569C47.0355 265.426 47.106 265.358 47.4221 265.216C47.755 265.067 48.0093 265.035 49.1137 265.005C49.8286 264.985 50.4317 264.987 50.4541 265.009Z" fill="black"/>
</svg>